<?xml version="1.0" encoding="utf-8"?>
<!-- Generator: Adobe Illustrator 17.0.0, SVG Export Plug-In . SVG Version: 6.00 Build 0)  -->
<!DOCTYPE svg PUBLIC "-//W3C//DTD SVG 1.1//EN" "http://www.w3.org/Graphics/SVG/1.1/DTD/svg11.dtd">
<svg version="1.1" id="Capa_1" xmlns="http://www.w3.org/2000/svg" xmlns:xlink="http://www.w3.org/1999/xlink" x="0px" y="0px"
	 width="460.289px" height="93.401px" viewBox="0 0 460.289 93.401" enable-background="new 0 0 460.289 93.401"
	 xml:space="preserve">
<g>
	<g>
		<g>
			<path fill="#F2936B" d="M98.773,0.373c3.23-0.767,6.846-0.393,9.627,1.518c3.444,2.146,5.491,6.287,5.152,10.324
				c-0.155,3.669-2.255,7.164-5.411,9.039c-4.967,3.172-12.251,1.862-15.66-2.987c-3.062-4.182-2.896-10.602,0.703-14.421
				C94.674,2.19,96.6,0.902,98.773,0.373z"/>
			<path fill="#F2936B" d="M91.553,33.505c6.95,0,13.902,0,20.852,0c0,19.195,0.005,38.399-0.005,57.594
				c-6.939-0.005-13.878,0-20.817-0.005C91.513,71.899,91.569,52.701,91.553,33.505z"/>
		</g>
		<g>
			<path fill="#73C2AD" d="M0.046,3.061C6.812,2.973,13.582,3.042,20.35,3.026c0.126,18.049,0,36.098,0.069,54.139
				c0.184,4.948,1.176,10.279,4.708,13.998c3.206,3.535,8.329,4.379,12.887,4.131c4.748-0.219,9.643-2.41,12.19-6.565
				c2.007-3.281,2.608-7.209,2.787-10.987c0.016-18.244-0.005-36.483,0.011-54.722c6.749,0.011,13.491,0,20.24,0.005
				c0.069,18.816,0.016,37.632,0.024,56.448c-0.12,9.149-3.156,18.797-10.228,24.959c-6.944,6.188-16.531,8.278-25.605,8.403
				c-8.692,0.126-17.851-1.413-24.999-6.685C5.922,81.611,2.05,74.06,0.776,66.354c-0.428-3.057-0.842-6.132-0.767-9.224
				C0.041,39.111-0.029,21.086,0.046,3.061z"/>
		</g>
		<g>
			<path fill="#545353" d="M139.077,9.602c5.138-0.094,10.284,0,15.425-0.04c0.024,7.407,0,14.808,0.011,22.212
				c3.075,0,6.154-0.005,9.229,0c0,4.425,0,8.842,0,13.266c-3.081,0-6.154,0-9.229,0c-0.005,15.604,0.005,31.206-0.005,46.81
				c-5.216,0-10.434,0.005-15.655-0.005c-0.005-15.596,0-31.201,0-46.797c-2.664-0.011-5.325-0.005-7.989-0.005
				c0-4.425,0-8.842,0-13.266c2.664-0.005,5.325,0.005,7.989-0.005c0.029-7.332-0.069-14.664,0.045-21.993L139.077,9.602z"/>
			<g>
				<path fill="#545353" d="M185.569,34.582c7.62-4.489,16.98-5.093,25.501-3.329c9.437,1.977,17.737,8.745,21.44,17.656
					c2.325,5.451,2.902,11.473,2.637,17.344c-16.526,0.094-33.052,0-49.584,0.045c0.93,4.973,4.048,9.587,8.727,11.703
					c7.73,3.474,17.496,1.876,23.58-4.091c4.366,2.087,8.866,3.904,13.151,6.154c-4.903,7.233-13.071,12.021-21.758,12.887
					c-5.48,0.802-11.126,0.524-16.491-0.882c-9.881-2.573-18.263-10.469-21.165-20.294c-1.777-6.023-1.737-12.494-0.243-18.567
					C173.315,45.403,178.71,38.683,185.569,34.582z M192.04,46.822c-2.643,1.793-4.206,4.689-5.67,7.441
					c11.006,0,22.017,0.029,33.023-0.011c-0.617-1.788-1.547-3.455-2.763-4.908C210.667,42.387,199.378,41.62,192.04,46.822z"/>
			</g>
			<path fill="#545353" d="M269.979,31.897c6.83-1.926,14.151-2.031,21.066-0.478c7.567,1.777,14.664,6.207,18.99,12.748
				c-4.275,2.383-8.652,4.58-12.938,6.95c-2.498-2.135-5.053-4.419-8.254-5.416c-5.331-1.662-11.27-1.512-16.422,0.716
				c-5.007,2.17-8.86,6.854-9.836,12.246c-0.711,4.331-0.265,9.05,2.204,12.783c2.704,4.371,7.586,7.123,12.644,7.701
				c5.261,0.652,10.926-0.051,15.401-3.062c1.598-0.97,2.848-2.375,4.216-3.634c4.021,2.672,8.035,5.352,12.056,8.024
				c-0.016,0.15-0.045,0.457-0.059,0.607c-5.173,6.586-13.031,10.827-21.32,11.837c-9.534,1.309-19.901,0.094-27.994-5.445
				c-6.765-4.775-11.762-12.27-12.938-20.523c-1.136-6.824,0.139-14.057,3.594-20.061C254.482,39.434,261.915,34.237,269.979,31.897
				z"/>
			<path fill="#545353" d="M341.326,37.721c4.529-3.645,9.795-6.8,15.725-7.244c7.089-0.836,14.624,1.817,19.225,7.361
				c3.086,3.789,4.091,8.796,4.267,13.566c-0.016,13.475,0,26.944-0.011,40.419c-5.242,0.075-10.487,0.005-15.735,0.035
				c-0.099-10.413,0.011-20.823-0.051-31.23c-0.329-4.008,0.029-8.353-2.087-11.952c-1.582-2.803-4.799-4.435-7.984-4.302
				c-3.957-0.254-7.781,1.932-10.001,5.138c-2.266,3.206-3.177,7.193-3.26,11.07c-0.208,10.413-0.051,20.828-0.104,31.241
				c-5.242,0.075-10.482,0-15.725,0.04c-0.115-20.026-0.011-40.055-0.045-60.082c5.256-0.011,10.514-0.011,15.775,0
				C341.304,33.759,341.304,35.742,341.326,37.721z"/>
			<g>
				<path fill="#545353" d="M421.696,30.804c8.064-1.315,16.625,0.179,23.569,4.55c7.65,4.516,13.135,12.499,14.581,21.266
					c1.574,8.97-1.12,18.487-6.984,25.432c-9.651,11.559-27.577,14.65-40.758,7.596c-7.925-4.371-14.282-12.01-16.064-20.996
					c-1.518-7.73-0.518-16.152,3.733-22.888C404.593,38.061,412.707,32.375,421.696,30.804z M422.925,45.382
					c-6.506,1.753-11.415,7.93-11.762,14.645c-0.403,4.983,0.778,10.423,4.465,14.012c6.063,6.806,17.945,6.731,24.098,0.075
					c3.963-3.893,5.221-9.806,4.465-15.171c-0.577-5.515-4.27-10.568-9.344-12.788C431.104,44.58,426.839,44.367,422.925,45.382z"/>
			</g>
		</g>
	</g>
</g>
</svg>
