<?xml version="1.0" encoding="utf-8"?>
<!-- Generator: Adobe Illustrator 17.0.0, SVG Export Plug-In . SVG Version: 6.00 Build 0)  -->
<!DOCTYPE svg PUBLIC "-//W3C//DTD SVG 1.1//EN" "http://www.w3.org/Graphics/SVG/1.1/DTD/svg11.dtd">
<svg version="1.1" id="Capa_1" xmlns="http://www.w3.org/2000/svg" xmlns:xlink="http://www.w3.org/1999/xlink" x="0px" y="0px"
	 width="353.35px" height="117.039px" viewBox="0 0 353.35 117.039" enable-background="new 0 0 353.35 117.039"
	 xml:space="preserve">
<g>
	<path fill="#70706F" d="M1.985,117.039L1.985,117.039c-1.096,0-1.985-0.889-1.985-1.985V1.985C0,0.889,0.889,0,1.985,0h0
		c1.096,0,1.985,0.889,1.985,1.985v113.069C3.971,116.15,3.082,117.039,1.985,117.039z"/>
	<g>
		<path fill="#70706F" d="M30.015,12.007c2.931,0,4.996,0.296,6.197,0.885c1.2,0.591,1.801,1.313,1.801,2.167
			c0,0.449-0.091,0.926-0.274,1.435c-0.183,0.509-0.499,0.987-0.946,1.435c-0.449-0.325-1.201-0.661-2.259-1.007
			c-1.059-0.345-2.3-0.519-3.724-0.519c-1.832,0-3.277,0.377-4.335,1.129c-1.059,0.754-1.587,1.781-1.587,3.083
			c0,1.14,0.233,2.158,0.702,3.053c0.467,0.896,1.169,1.893,2.106,2.992l6.594,7.51c0.772,0.937,1.424,1.822,1.954,2.656
			c0.529,0.835,0.956,1.669,1.282,2.503c0.325,0.834,0.549,1.669,0.671,2.503c0.123,0.834,0.184,1.72,0.184,2.656
			c0,1.547-0.184,3.013-0.55,4.396c-0.366,1.384-0.967,2.605-1.801,3.663c-0.835,1.059-1.954,1.893-3.358,2.503
			c-1.404,0.61-3.144,0.916-5.22,0.916c-2.768,0-4.792-0.396-6.075-1.19c-1.282-0.793-1.923-1.618-1.923-2.473
			c0-0.488,0.101-1.058,0.305-1.709c0.203-0.651,0.529-1.261,0.977-1.832c0.65,0.57,1.496,1.068,2.534,1.496s2.29,0.641,3.755,0.641
			c2.198,0,3.745-0.569,4.64-1.709c0.895-1.139,1.343-2.646,1.343-4.518c0-1.383-0.255-2.666-0.763-3.847
			c-0.509-1.18-1.435-2.543-2.778-4.09l-6.167-7.144c-1.384-1.709-2.361-3.246-2.931-4.61c-0.571-1.363-0.855-2.757-0.855-4.182
			c0-2.564,0.885-4.671,2.656-6.319S26.555,12.007,30.015,12.007z"/>
		<path fill="#70706F" d="M52.482,24.218c5.169,0,7.754,3.277,7.754,9.83c0,1.343-0.052,2.728-0.153,4.152
			c-0.102,1.425-0.275,2.686-0.519,3.785c-1.059,0.204-2.178,0.366-3.358,0.488c-1.181,0.123-2.351,0.225-3.511,0.306
			c-1.16,0.082-2.25,0.132-3.267,0.152c-1.018,0.021-1.893,0.031-2.625,0.031c0.04,1.628,0.192,2.972,0.458,4.029
			c0.265,1.059,0.62,1.893,1.069,2.503c0.447,0.611,1.017,1.038,1.709,1.282c0.691,0.244,1.505,0.366,2.442,0.366
			c1.221,0,2.421-0.172,3.603-0.519c1.18-0.345,2.299-0.803,3.358-1.374c0.162,0.448,0.275,0.998,0.336,1.648
			c0.061,0.651,0.091,1.221,0.091,1.709c0,0.489-0.224,0.937-0.671,1.343c-0.448,0.407-1.059,0.763-1.832,1.068
			c-0.774,0.305-1.669,0.539-2.687,0.702c-1.018,0.162-2.097,0.244-3.236,0.244c-1.425,0-2.738-0.183-3.938-0.549
			c-1.201-0.366-2.229-1.068-3.083-2.106c-0.854-1.038-1.526-2.493-2.015-4.365c-0.489-1.872-0.733-4.294-0.733-7.266
			c0-3.826,0.315-6.889,0.946-9.189c0.631-2.299,1.444-4.06,2.442-5.281c0.997-1.221,2.146-2.024,3.45-2.412
			C49.816,24.412,51.14,24.218,52.482,24.218z M51.933,28.553c-0.61,0-1.201,0.153-1.771,0.458c-0.57,0.305-1.089,0.855-1.557,1.648
			c-0.468,0.794-0.854,1.853-1.16,3.175c-0.306,1.323-0.499,3.022-0.58,5.098c0.569,0,1.221,0,1.954,0s1.475-0.03,2.229-0.091
			c0.752-0.061,1.485-0.132,2.198-0.214c0.712-0.081,1.333-0.203,1.862-0.366c0.122-0.57,0.203-1.18,0.244-1.832
			c0.04-0.65,0.061-1.261,0.061-1.832c-0.041-2.198-0.305-3.755-0.793-4.67C54.131,29.011,53.235,28.553,51.933,28.553z"/>
		<path fill="#70706F" d="M64.571,26.966c1.18-0.813,2.482-1.475,3.907-1.984c1.424-0.508,2.89-0.763,4.396-0.763
			c1.546,0,2.646,0.224,3.297,0.672c0.65,0.448,0.977,1.079,0.977,1.893c0,0.326-0.041,0.763-0.122,1.313
			c-0.082,0.55-0.224,1.09-0.427,1.618c-0.937-0.488-1.914-0.732-2.931-0.732c-0.693,0-1.395,0.112-2.106,0.335
			c-0.712,0.224-1.354,0.58-1.923,1.068l-0.061,23.995c0,0.245-0.03,0.438-0.091,0.58c-0.061,0.143-0.245,0.244-0.55,0.305
			s-0.804,0.092-1.496,0.092c-0.693,0-1.648,0-2.87,0V26.966z"/>
		<path fill="#70706F" d="M78.979,26.355c-0.082-0.366-0.102-0.661-0.061-0.885c0.04-0.223,0.233-0.376,0.58-0.458
			c0.345-0.081,0.895-0.132,1.648-0.153c0.752-0.02,1.801-0.03,3.144-0.03l1.954,9.769c0.325,1.587,0.63,3.288,0.916,5.098
			c0.284,1.812,0.529,3.491,0.733,5.037c0.244,1.792,0.488,3.562,0.732,5.312h0.122c0.203-1.791,0.427-3.581,0.672-5.373
			c0.203-1.546,0.437-3.215,0.702-5.006c0.264-1.791,0.559-3.5,0.885-5.129l1.648-8.609c0.04-0.284,0.101-0.498,0.183-0.641
			c0.081-0.143,0.295-0.245,0.641-0.306c0.345-0.061,0.854-0.101,1.526-0.122c0.671-0.02,1.638-0.03,2.9-0.03l-7.021,30.71
			c-0.449,0.081-1.038,0.132-1.771,0.153c-0.732,0.02-1.303,0.03-1.709,0.03c-0.57,0-1.028-0.285-1.374-0.854
			c-0.346-0.57-0.621-1.282-0.824-2.137L78.979,26.355z"/>
		<path fill="#70706F" d="M106.758,54.379c0,0.245-0.03,0.438-0.091,0.58c-0.061,0.143-0.255,0.244-0.58,0.305
			c-0.326,0.061-0.824,0.092-1.496,0.092c-0.671,0-1.639,0-2.9,0V27.088c0-0.569,0.07-1.007,0.214-1.313
			c0.142-0.305,0.406-0.528,0.793-0.672c0.386-0.142,0.905-0.223,1.557-0.244c0.65-0.02,1.485-0.03,2.503-0.03V54.379z
			 M101.752,15.121c0.04-1.099,0.284-1.984,0.732-2.656c0.448-0.671,1.16-1.007,2.137-1.007c0.936,0,1.587,0.265,1.954,0.793
			c0.366,0.53,0.528,1.445,0.488,2.748c0,1.262-0.234,2.239-0.702,2.931c-0.468,0.693-1.17,1.038-2.106,1.038
			c-0.815,0-1.435-0.284-1.862-0.855C101.966,17.543,101.752,16.546,101.752,15.121z"/>
		<path fill="#70706F" d="M127.516,26.966c0,0.326-0.041,0.733-0.121,1.221c-0.082,0.488-0.225,0.998-0.428,1.526
			c-0.488-0.284-1.121-0.539-1.893-0.763c-0.774-0.223-1.568-0.336-2.381-0.336c-0.733,0-1.456,0.122-2.167,0.367
			c-0.713,0.244-1.354,0.784-1.923,1.618c-0.57,0.835-1.038,2.056-1.404,3.664c-0.366,1.608-0.549,3.775-0.549,6.502
			c0,2.158,0.111,3.929,0.335,5.312c0.224,1.384,0.559,2.483,1.008,3.297c0.447,0.815,1.007,1.384,1.679,1.709
			c0.672,0.326,1.475,0.488,2.412,0.488c0.977,0,1.893-0.152,2.748-0.458c0.854-0.306,1.547-0.62,2.076-0.946
			c0.162,0.57,0.283,1.059,0.365,1.465c0.082,0.407,0.123,0.814,0.123,1.221c0,0.815-0.633,1.537-1.893,2.167
			c-1.263,0.631-2.911,0.946-4.946,0.946c-1.465,0-2.758-0.183-3.877-0.549c-1.12-0.366-2.066-1.099-2.839-2.198
			c-0.774-1.099-1.364-2.646-1.771-4.64c-0.408-1.994-0.611-4.6-0.611-7.815c0-3.663,0.336-6.583,1.007-8.761
			c0.672-2.177,1.536-3.847,2.595-5.006c1.058-1.16,2.238-1.913,3.541-2.259c1.302-0.345,2.584-0.519,3.847-0.519
			c1.424,0,2.625,0.255,3.602,0.763C127.028,25.491,127.516,26.152,127.516,26.966z"/>
		<path fill="#70706F" d="M136.552,54.379c0,0.245-0.03,0.438-0.092,0.58c-0.061,0.143-0.254,0.244-0.58,0.305
			s-0.824,0.092-1.495,0.092c-0.672,0-1.64,0-2.9,0V27.088c0-0.569,0.07-1.007,0.214-1.313c0.142-0.305,0.406-0.528,0.794-0.672
			c0.386-0.142,0.905-0.223,1.557-0.244c0.65-0.02,1.485-0.03,2.503-0.03V54.379z M131.545,15.121
			c0.04-1.099,0.285-1.984,0.733-2.656c0.447-0.671,1.16-1.007,2.137-1.007c0.936,0,1.587,0.265,1.954,0.793
			c0.366,0.53,0.528,1.445,0.488,2.748c0,1.262-0.235,2.239-0.702,2.931c-0.469,0.693-1.171,1.038-2.106,1.038
			c-0.814,0-1.435-0.284-1.862-0.855C131.759,17.543,131.545,16.546,131.545,15.121z"/>
		<path fill="#70706F" d="M140.825,40.093c0-5.576,0.886-9.616,2.656-12.12c1.771-2.503,4.264-3.755,7.479-3.755
			c1.587,0,2.981,0.235,4.182,0.702c1.2,0.469,2.188,1.303,2.962,2.503c0.772,1.201,1.353,2.809,1.74,4.823
			c0.386,2.015,0.579,4.57,0.579,7.663c0,5.699-0.854,9.799-2.563,12.302c-1.71,2.503-4.193,3.755-7.449,3.755
			c-1.587,0-2.972-0.183-4.151-0.549c-1.182-0.366-2.178-1.108-2.992-2.229c-0.814-1.119-1.425-2.727-1.831-4.823
			C141.029,46.269,140.825,43.512,140.825,40.093z M146.198,40.215c0,2.524,0.092,4.539,0.275,6.044
			c0.183,1.506,0.458,2.667,0.824,3.48c0.366,0.815,0.824,1.354,1.373,1.618c0.55,0.265,1.17,0.397,1.862,0.397
			c0.65,0,1.252-0.163,1.802-0.489c0.549-0.325,1.027-0.936,1.435-1.832c0.406-0.895,0.722-2.096,0.946-3.602
			c0.223-1.505,0.336-3.459,0.336-5.861c0-2.442-0.092-4.406-0.275-5.892c-0.183-1.485-0.448-2.635-0.793-3.449
			c-0.347-0.814-0.784-1.363-1.313-1.648c-0.529-0.285-1.159-0.428-1.893-0.428c-0.692,0-1.313,0.163-1.862,0.489
			c-0.549,0.326-1.028,0.916-1.435,1.771c-0.407,0.854-0.723,2.045-0.946,3.572S146.198,37.854,146.198,40.215z"/>
		<path fill="#70706F" d="M173.672,24.218c1.587,0,2.879,0.122,3.877,0.367c0.997,0.244,1.78,0.54,2.351,0.885
			c0.569,0.346,0.956,0.723,1.16,1.129c0.203,0.407,0.305,0.753,0.305,1.038c0,0.854-0.366,1.689-1.099,2.503
			c-1.75-1.058-3.745-1.587-5.983-1.587c-1.425,0-2.585,0.255-3.48,0.763c-0.896,0.51-1.343,1.232-1.343,2.167
			c0,0.571,0.143,1.129,0.428,1.679c0.284,0.549,0.956,1.251,2.015,2.106l5.678,4.579c1.303,1.303,2.229,2.514,2.778,3.633
			c0.55,1.12,0.824,2.453,0.824,3.999c0,2.728-0.896,4.823-2.687,6.289c-1.792,1.465-4.254,2.198-7.388,2.198
			c-2.198,0-3.989-0.254-5.373-0.763c-1.384-0.508-2.075-1.292-2.075-2.351c0-0.366,0.061-0.793,0.183-1.282
			c0.122-0.488,0.346-1.017,0.672-1.587c1.749,1.018,3.785,1.526,6.105,1.526c1.546,0,2.757-0.325,3.633-0.977
			c0.875-0.651,1.313-1.587,1.313-2.809c0-0.814-0.174-1.607-0.519-2.381c-0.347-0.772-0.987-1.566-1.924-2.381l-5.922-5.068
			c-1.385-1.139-2.311-2.249-2.778-3.327c-0.469-1.078-0.702-2.126-0.702-3.145c0-2.116,0.804-3.846,2.412-5.189
			C167.74,24.89,170.253,24.218,173.672,24.218z"/>
		<path fill="#70706F" d="M202.733,12.618c1.994,0,3.745,0.305,5.251,0.916c1.506,0.611,2.757,1.648,3.755,3.114
			c0.997,1.465,1.74,3.43,2.229,5.892c0.488,2.463,0.732,5.546,0.732,9.25c0,4.478-0.265,8.223-0.793,11.234
			c-0.53,3.013-1.304,5.434-2.32,7.266c-1.018,1.832-2.27,3.135-3.755,3.907c-1.486,0.774-3.165,1.16-5.037,1.16h-7.632V13.778
			c0-0.366,0.101-0.65,0.305-0.854c0.204-0.203,0.651-0.305,1.344-0.305H202.733z M209.022,31.301c0-2.809-0.122-5.128-0.366-6.96
			c-0.244-1.832-0.621-3.276-1.13-4.334c-0.509-1.058-1.15-1.791-1.923-2.198c-0.773-0.406-1.67-0.61-2.687-0.61h-2.809v33.458
			h2.747c0.773,0,1.536-0.214,2.29-0.641c0.753-0.427,1.414-1.322,1.984-2.687c0.569-1.363,1.027-3.317,1.374-5.861
			C208.848,38.923,209.022,35.535,209.022,31.301z"/>
		<path fill="#70706F" d="M224.346,54.379c0,0.245-0.03,0.438-0.092,0.58c-0.061,0.143-0.254,0.244-0.58,0.305
			s-0.824,0.092-1.495,0.092c-0.672,0-1.64,0-2.9,0V27.088c0-0.569,0.07-1.007,0.214-1.313c0.142-0.305,0.406-0.528,0.794-0.672
			c0.386-0.142,0.905-0.223,1.557-0.244c0.65-0.02,1.485-0.03,2.503-0.03V54.379z M219.339,15.121
			c0.04-1.099,0.285-1.984,0.733-2.656c0.447-0.671,1.16-1.007,2.137-1.007c0.936,0,1.587,0.265,1.954,0.793
			c0.366,0.53,0.528,1.445,0.488,2.748c0,1.262-0.235,2.239-0.702,2.931c-0.469,0.693-1.171,1.038-2.106,1.038
			c-0.814,0-1.435-0.284-1.862-0.855C219.553,17.543,219.339,16.546,219.339,15.121z"/>
		<path fill="#70706F" d="M239.67,24.218c0.406,0,0.885,0.041,1.435,0.122c0.55,0.082,1.088,0.205,1.618,0.367h7.326
			c0.122,0.204,0.233,0.509,0.336,0.916c0.102,0.408,0.152,0.896,0.152,1.465c0,1.262-0.57,1.893-1.709,1.893
			c-0.57,0-1.304-0.102-2.198-0.306c0.691,0.693,1.252,1.587,1.679,2.687c0.428,1.099,0.642,2.402,0.642,3.908
			c0,3.257-0.764,5.852-2.29,7.784c-1.526,1.934-4.06,2.9-7.602,2.9c-1.14,0-2.056-0.081-2.747-0.244
			c-0.407,0.407-0.773,0.854-1.099,1.343c-0.326,0.489-0.488,0.937-0.488,1.343c0,0.286,0.183,0.519,0.549,0.702
			s0.875,0.336,1.526,0.458c0.65,0.122,1.414,0.244,2.29,0.366c0.875,0.122,1.821,0.245,2.839,0.367
			c1.221,0.204,2.32,0.458,3.297,0.763c0.977,0.305,1.821,0.732,2.534,1.282c0.711,0.55,1.261,1.232,1.648,2.045
			c0.386,0.815,0.58,1.832,0.58,3.053c0,1.302-0.225,2.554-0.672,3.755c-0.448,1.2-1.15,2.259-2.106,3.175
			c-0.957,0.916-2.178,1.649-3.663,2.198c-1.486,0.549-3.247,0.824-5.281,0.824c-2.036,0-3.694-0.194-4.977-0.58
			c-1.282-0.387-2.279-0.906-2.991-1.557c-0.713-0.652-1.19-1.364-1.435-2.137c-0.245-0.773-0.367-1.567-0.367-2.381
			c0-1.506,0.448-2.88,1.344-4.122c0.895-1.242,1.994-2.31,3.297-3.205c-1.181-0.326-2.106-0.763-2.778-1.313
			c-0.671-0.549-0.987-1.23-0.946-2.045c0.04-0.813,0.406-1.699,1.1-2.656c0.691-0.956,1.627-1.902,2.809-2.839
			c-1.426-0.936-2.412-2.208-2.962-3.816c-0.549-1.607-0.824-3.389-0.824-5.342c0-2.035,0.244-3.765,0.733-5.19
			c0.488-1.424,1.18-2.574,2.075-3.449c0.896-0.875,1.964-1.516,3.206-1.923C236.79,24.422,238.164,24.218,239.67,24.218z
			 M238.022,54.196c-0.204,0-0.388-0.009-0.55-0.03c-0.163-0.02-0.347-0.051-0.55-0.092c-0.896,0.693-1.669,1.526-2.32,2.503
			c-0.651,0.977-0.977,1.974-0.977,2.992c0,0.488,0.07,0.925,0.214,1.313c0.143,0.386,0.396,0.722,0.763,1.007
			c0.367,0.285,0.886,0.509,1.558,0.672c0.671,0.162,1.536,0.244,2.595,0.244c1.099,0,2.035-0.143,2.809-0.427
			c0.772-0.286,1.414-0.662,1.923-1.13c0.509-0.468,0.886-0.977,1.13-1.526c0.244-0.549,0.366-1.089,0.366-1.618
			c0-0.693-0.112-1.262-0.336-1.709c-0.225-0.449-0.601-0.824-1.13-1.13c-0.529-0.305-1.241-0.539-2.137-0.702
			C240.484,54.4,239.365,54.278,238.022,54.196z M239.487,27.882c-1.303,0-2.411,0.56-3.327,1.679
			c-0.916,1.12-1.374,3.022-1.374,5.709c0,1.099,0.062,2.076,0.184,2.931c0.122,0.854,0.345,1.578,0.671,2.167
			c0.325,0.59,0.783,1.038,1.374,1.343c0.59,0.306,1.353,0.458,2.29,0.458c1.627,0,2.808-0.671,3.541-2.015
			c0.732-1.343,1.099-3.358,1.099-6.044c0-2.238-0.377-3.836-1.13-4.793C242.061,28.361,240.953,27.882,239.487,27.882z"/>
		<path fill="#70706F" d="M259.024,54.379c0,0.245-0.03,0.438-0.092,0.58c-0.061,0.143-0.254,0.244-0.58,0.305
			s-0.824,0.092-1.495,0.092c-0.672,0-1.64,0-2.9,0V27.088c0-0.569,0.07-1.007,0.214-1.313c0.142-0.305,0.406-0.528,0.794-0.672
			c0.386-0.142,0.905-0.223,1.557-0.244c0.65-0.02,1.485-0.03,2.503-0.03V54.379z M254.017,15.121
			c0.04-1.099,0.285-1.984,0.733-2.656c0.447-0.671,1.16-1.007,2.137-1.007c0.936,0,1.587,0.265,1.954,0.793
			c0.366,0.53,0.528,1.445,0.488,2.748c0,1.262-0.235,2.239-0.702,2.931c-0.469,0.693-1.171,1.038-2.106,1.038
			c-0.814,0-1.435-0.284-1.862-0.855C254.231,17.543,254.017,16.546,254.017,15.121z"/>
		<path fill="#70706F" d="M267.083,29.103h-4.152c0-0.936,0.01-1.689,0.031-2.259c0.02-0.569,0.061-1.007,0.122-1.313
			c0.061-0.305,0.172-0.498,0.336-0.58c0.162-0.081,0.366-0.122,0.61-0.122h3.053v-9.28c0-0.407,0.07-0.733,0.214-0.977
			c0.142-0.244,0.396-0.417,0.763-0.519c0.366-0.101,0.875-0.162,1.526-0.183c0.65-0.02,1.485-0.031,2.503-0.031v10.99h6.228
			c0,0.977-0.01,1.74-0.03,2.29c-0.021,0.549-0.061,0.977-0.122,1.282c-0.061,0.305-0.152,0.499-0.274,0.58
			c-0.122,0.082-0.306,0.122-0.55,0.122h-5.251V46.87c0,0.652,0.01,1.273,0.031,1.862c0.02,0.59,0.101,1.099,0.244,1.526
			c0.142,0.427,0.355,0.774,0.641,1.038c0.284,0.265,0.712,0.397,1.282,0.397c0.691,0,1.303-0.071,1.832-0.214
			c0.528-0.142,1.099-0.376,1.709-0.702c0.081,0.326,0.162,0.692,0.244,1.099c0.081,0.407,0.122,0.854,0.122,1.343
			c0,0.57-0.163,1.028-0.488,1.374c-0.326,0.346-0.743,0.621-1.251,0.824c-0.51,0.203-1.069,0.345-1.68,0.427
			c-0.61,0.081-1.221,0.122-1.831,0.122c-1.304,0-2.342-0.213-3.114-0.641c-0.773-0.427-1.364-1.038-1.771-1.832
			c-0.407-0.793-0.672-1.75-0.794-2.87c-0.122-1.119-0.183-2.371-0.183-3.755V29.103z"/>
		<path fill="#70706F" d="M281.43,27.577c0-0.326,0.05-0.641,0.152-0.947c0.101-0.305,0.274-0.559,0.519-0.763
			c0.529-0.325,1.628-0.681,3.297-1.068c1.669-0.386,3.664-0.58,5.983-0.58c2.646,0,4.569,0.55,5.771,1.648
			c1.199,1.099,1.801,3.033,1.801,5.8v3.236c0,1.751,0,3.511,0,5.281c0,1.771-0.021,3.48-0.062,5.129
			c-0.041,1.648-0.082,3.205-0.122,4.67c-0.041,1.465-0.102,2.769-0.183,3.908c-0.814,0.488-1.934,0.957-3.358,1.404
			s-3.135,0.671-5.129,0.671c-1.099,0-2.178-0.082-3.235-0.244c-1.059-0.163-1.995-0.569-2.809-1.221
			c-0.814-0.65-1.466-1.597-1.954-2.839c-0.488-1.241-0.732-2.9-0.732-4.976c0-2.116,0.233-3.825,0.702-5.128
			c0.468-1.302,1.078-2.32,1.832-3.053c0.752-0.733,1.617-1.221,2.595-1.465c0.977-0.244,1.974-0.366,2.991-0.366
			c0.692,0,1.455,0.051,2.29,0.152c0.834,0.102,1.557,0.316,2.167,0.641v-4.823c0-1.424-0.326-2.381-0.977-2.87
			c-0.651-0.488-1.588-0.732-2.809-0.732c-1.547,0-3.053,0.132-4.518,0.396c-1.466,0.265-2.646,0.58-3.542,0.946
			c-0.285-0.488-0.468-0.986-0.549-1.496C281.47,28.381,281.43,27.943,281.43,27.577z M293.946,40.947
			c-0.407-0.203-0.876-0.345-1.404-0.427c-0.529-0.081-1.018-0.122-1.465-0.122c-0.61,0-1.19,0.072-1.74,0.214
			c-0.55,0.143-1.028,0.438-1.435,0.885c-0.407,0.448-0.732,1.068-0.978,1.862c-0.244,0.793-0.366,1.862-0.366,3.205
			c0,1.099,0.092,1.995,0.275,2.687c0.183,0.692,0.447,1.231,0.793,1.618c0.346,0.387,0.764,0.641,1.252,0.763
			c0.488,0.122,1.038,0.183,1.648,0.183c0.691,0,1.333-0.101,1.924-0.306c0.589-0.203,1.027-0.447,1.313-0.732
			c0.04-0.488,0.07-1.129,0.091-1.923c0.021-0.793,0.041-1.638,0.062-2.534c0.021-0.895,0.03-1.811,0.03-2.748
			C293.946,42.637,293.946,41.762,293.946,40.947z"/>
		<path fill="#70706F" d="M308.964,54.379c0,0.245-0.03,0.438-0.092,0.58c-0.061,0.143-0.244,0.244-0.549,0.305
			c-0.306,0.061-0.794,0.092-1.466,0.092s-1.618,0-2.839,0V12.74c0-0.57,0.07-1.007,0.214-1.313
			c0.142-0.305,0.396-0.528,0.763-0.671c0.366-0.142,0.875-0.223,1.526-0.244c0.65-0.02,1.466-0.031,2.442-0.031V54.379z"/>
		<path fill="#70706F" d="M324.472,24.218c5.169,0,7.754,3.277,7.754,9.83c0,1.343-0.051,2.728-0.152,4.152
			c-0.103,1.425-0.274,2.686-0.519,3.785c-1.06,0.204-2.179,0.366-3.358,0.488c-1.181,0.123-2.351,0.225-3.511,0.306
			c-1.16,0.082-2.249,0.132-3.267,0.152c-1.018,0.021-1.893,0.031-2.625,0.031c0.04,1.628,0.192,2.972,0.458,4.029
			c0.264,1.059,0.62,1.893,1.068,2.503c0.447,0.611,1.017,1.038,1.709,1.282s1.506,0.366,2.442,0.366
			c1.222,0,2.422-0.172,3.603-0.519c1.18-0.345,2.299-0.803,3.358-1.374c0.162,0.448,0.274,0.998,0.335,1.648
			c0.062,0.651,0.092,1.221,0.092,1.709c0,0.489-0.224,0.937-0.672,1.343c-0.448,0.407-1.059,0.763-1.831,1.068
			c-0.773,0.305-1.67,0.539-2.687,0.702c-1.018,0.162-2.097,0.244-3.236,0.244c-1.425,0-2.737-0.183-3.938-0.549
			c-1.201-0.366-2.229-1.068-3.083-2.106c-0.855-1.038-1.526-2.493-2.016-4.365c-0.488-1.872-0.732-4.294-0.732-7.266
			c0-3.826,0.314-6.889,0.946-9.189c0.631-2.299,1.444-4.06,2.442-5.281c0.997-1.221,2.146-2.024,3.449-2.412
			C321.806,24.412,323.129,24.218,324.472,24.218z M323.923,28.553c-0.611,0-1.201,0.153-1.771,0.458s-1.089,0.855-1.557,1.648
			c-0.468,0.794-0.854,1.853-1.16,3.175c-0.305,1.323-0.499,3.022-0.58,5.098c0.57,0,1.222,0,1.954,0s1.475-0.03,2.229-0.091
			c0.753-0.061,1.485-0.132,2.198-0.214c0.711-0.081,1.332-0.203,1.862-0.366c0.122-0.57,0.203-1.18,0.244-1.832
			c0.04-0.65,0.061-1.261,0.061-1.832c-0.041-2.198-0.305-3.755-0.794-4.67C326.121,29.011,325.225,28.553,323.923,28.553z"/>
		<path fill="#70706F" d="M345.658,24.218c1.587,0,2.879,0.122,3.877,0.367c0.997,0.244,1.78,0.54,2.351,0.885
			c0.569,0.346,0.956,0.723,1.16,1.129c0.203,0.407,0.305,0.753,0.305,1.038c0,0.854-0.366,1.689-1.099,2.503
			c-1.75-1.058-3.745-1.587-5.983-1.587c-1.425,0-2.585,0.255-3.48,0.763c-0.896,0.51-1.343,1.232-1.343,2.167
			c0,0.571,0.143,1.129,0.428,1.679c0.284,0.549,0.956,1.251,2.015,2.106l5.678,4.579c1.303,1.303,2.228,2.514,2.778,3.633
			c0.55,1.12,0.824,2.453,0.824,3.999c0,2.728-0.896,4.823-2.687,6.289c-1.792,1.465-4.254,2.198-7.388,2.198
			c-2.198,0-3.989-0.254-5.373-0.763c-1.384-0.508-2.075-1.292-2.075-2.351c0-0.366,0.061-0.793,0.183-1.282
			c0.122-0.488,0.346-1.017,0.672-1.587c1.749,1.018,3.785,1.526,6.105,1.526c1.546,0,2.757-0.325,3.633-0.977
			c0.875-0.651,1.313-1.587,1.313-2.809c0-0.814-0.174-1.607-0.519-2.381c-0.347-0.772-0.987-1.566-1.924-2.381l-5.922-5.068
			c-1.385-1.139-2.311-2.249-2.778-3.327c-0.469-1.078-0.702-2.126-0.702-3.145c0-2.116,0.804-3.846,2.412-5.189
			C339.725,24.89,342.239,24.218,345.658,24.218z"/>
	</g>
	<g>
		<path fill="#70706F" d="M26.968,89.355h0.068c1.166-2.024,3.705-3.19,6.037-3.19c4.836,0,7.821,3.773,7.821,8.404
			c0,4.63-2.984,8.129-7.752,8.129c-2.435,0-4.802-1.063-6.105-3.087h-0.068v12.006h-1.544V86.508h1.544V89.355z M26.865,94.774
			c0,3.705,2.504,6.483,6.312,6.483c3.705,0,6.174-3.121,6.174-6.654c0-3.637-2.367-6.998-6.243-6.998
			C29.061,87.605,26.865,90.967,26.865,94.774z"/>
		<path fill="#70706F" d="M58.564,102.355H57.02v-2.847h-0.069c-1.167,2.023-3.705,3.189-6.037,3.189
			c-4.802,0-7.821-3.738-7.821-8.369s2.984-8.164,7.752-8.164c2.436,0,4.768,1.098,6.106,3.087h0.069v-2.744h1.543V102.355z
			 M44.637,94.329c0,3.636,2.401,6.929,6.243,6.929c4.047,0,6.243-3.293,6.243-7.101c0-3.67-2.504-6.552-6.346-6.552
			C47.141,87.605,44.637,90.898,44.637,94.329z"/>
		<path fill="#70706F" d="M65.393,88.566h0.068c0.617-1.441,1.75-2.401,3.43-2.401c0.618,0,1.132,0.138,1.681,0.377l-0.823,1.372
			c-0.377-0.205-0.686-0.309-1.098-0.309c-3.464,0-3.258,4.322-3.258,6.654v8.096h-1.544V86.508h1.544V88.566z"/>
		<path fill="#70706F" d="M87.314,102.355H85.77v-2.847h-0.069c-1.167,2.023-3.705,3.189-6.037,3.189
			c-4.802,0-7.821-3.738-7.821-8.369s2.984-8.164,7.752-8.164c2.436,0,4.768,1.098,6.106,3.087h0.069v-2.744h1.543V102.355z
			 M73.387,94.329c0,3.636,2.401,6.929,6.243,6.929c4.047,0,6.243-3.293,6.243-7.101c0-3.67-2.504-6.552-6.346-6.552
			C75.891,87.605,73.387,90.898,73.387,94.329z"/>
		<path fill="#70706F" d="M106.013,81.225c0,0.789-0.618,1.406-1.407,1.406c-0.789,0-1.406-0.617-1.406-1.406
			c0-0.755,0.618-1.406,1.406-1.406C105.396,79.819,106.013,80.471,106.013,81.225z M105.361,102.355h-1.543V86.508h1.543V102.355z"
			/>
		<path fill="#70706F" d="M112.806,88.498h0.068c0.72-1.476,2.298-2.333,3.979-2.333c2.024,0,3.636,1.029,4.459,2.882
			c0.857-1.887,2.606-2.882,4.631-2.882c4.082,0,4.904,2.778,4.904,6.243v9.947h-1.543V92.202c0-2.436-0.377-4.597-3.396-4.597
			c-3.292,0-4.082,2.882-4.082,5.626v9.124h-1.543v-9.776c0-2.47-0.446-4.974-3.533-4.974c-3.327,0-3.944,3.465-3.944,6.037v8.713
			h-1.544V86.508h1.544V88.498z"/>
		<path fill="#70706F" d="M137.678,89.355h0.068c1.167-2.024,3.705-3.19,6.037-3.19c4.837,0,7.821,3.773,7.821,8.404
			c0,4.63-2.984,8.129-7.752,8.129c-2.436,0-4.803-1.063-6.106-3.087h-0.068v12.006h-1.543V86.508h1.543V89.355z M137.576,94.774
			c0,3.705,2.504,6.483,6.312,6.483c3.704,0,6.174-3.121,6.174-6.654c0-3.637-2.366-6.998-6.242-6.998
			C139.771,87.605,137.576,90.967,137.576,94.774z"/>
		<path fill="#70706F" d="M166.496,86.508v9.502c0,1.612,0.034,3.225-0.96,4.563c-1.098,1.44-2.95,2.126-4.734,2.126
			c-1.783,0-3.636-0.686-4.733-2.126c-0.994-1.338-0.96-2.95-0.96-4.563v-9.502h1.543v8.953c0,3.053,0.344,5.797,4.15,5.797
			c3.808,0,4.151-2.744,4.151-5.797v-8.953H166.496z"/>
		<path fill="#70706F" d="M173.084,102.355h-1.543V74.057h1.543V102.355z"/>
		<path fill="#70706F" d="M185.022,89.39c-0.515-1.098-1.544-1.784-2.778-1.784c-1.338,0-2.71,1.098-2.71,2.47
			c0,3.808,7.718,1.955,7.718,7.684c0,2.916-2.264,4.939-5.111,4.939c-2.641,0-4.802-1.612-5.454-4.185l1.51-0.48
			c0.583,1.887,1.853,3.225,3.944,3.225c1.99,0,3.567-1.578,3.567-3.567c0-1.955-1.509-2.572-3.087-3.121
			c-2.161-0.789-4.631-1.716-4.631-4.391c0-2.401,2.024-4.014,4.322-4.014c1.612,0,3.361,1.063,4.048,2.538L185.022,89.39z"/>
		<path fill="#70706F" d="M205.159,102.355h-1.543v-2.847h-0.068c-1.167,2.023-3.705,3.189-6.037,3.189
			c-4.803,0-7.821-3.738-7.821-8.369s2.984-8.164,7.752-8.164c2.436,0,4.769,1.098,6.106,3.087h0.068v-2.744h1.543V102.355z
			 M191.233,94.329c0,3.636,2.4,6.929,6.242,6.929c4.048,0,6.243-3.293,6.243-7.101c0-3.67-2.504-6.552-6.346-6.552
			C193.737,87.605,191.233,90.898,191.233,94.329z"/>
		<path fill="#70706F" d="M211.989,88.566h0.068c0.618-1.441,1.75-2.401,3.431-2.401c0.617,0,1.132,0.138,1.681,0.377l-0.823,1.372
			c-0.377-0.205-0.686-0.309-1.098-0.309c-3.464,0-3.259,4.322-3.259,6.654v8.096h-1.543V86.508h1.543V88.566z"/>
		<path fill="#70706F" d="M232.334,102.355h-1.544V87.949h-1.749v-1.441h1.749v-5.659h1.544v5.659h2.778v1.441h-2.778V102.355z"/>
		<path fill="#70706F" d="M248.936,86.508v9.502c0,1.612,0.034,3.225-0.96,4.563c-1.098,1.44-2.95,2.126-4.733,2.126
			c-1.784,0-3.637-0.686-4.734-2.126c-0.994-1.338-0.96-2.95-0.96-4.563v-9.502h1.543v8.953c0,3.053,0.344,5.797,4.151,5.797
			c3.807,0,4.15-2.744,4.15-5.797v-8.953H248.936z"/>
		<path fill="#70706F" d="M260.636,89.39c-0.515-1.098-1.544-1.784-2.778-1.784c-1.338,0-2.71,1.098-2.71,2.47
			c0,3.808,7.718,1.955,7.718,7.684c0,2.916-2.264,4.939-5.111,4.939c-2.641,0-4.802-1.612-5.453-4.185l1.509-0.48
			c0.583,1.887,1.853,3.225,3.944,3.225c1.99,0,3.567-1.578,3.567-3.567c0-1.955-1.509-2.572-3.087-3.121
			c-2.161-0.789-4.631-1.716-4.631-4.391c0-2.401,2.024-4.014,4.322-4.014c1.612,0,3.361,1.063,4.048,2.538L260.636,89.39z"/>
		<path fill="#70706F" d="M280.26,81.225c0,0.789-0.617,1.406-1.406,1.406s-1.406-0.617-1.406-1.406
			c0-0.755,0.617-1.406,1.406-1.406S280.26,80.471,280.26,81.225z M279.608,102.355h-1.543V86.508h1.543V102.355z"/>
		<path fill="#70706F" d="M297.893,99.509h-0.068c-1.167,2.023-3.705,3.189-6.037,3.189c-4.803,0-7.821-3.738-7.821-8.369
			s2.984-8.164,7.752-8.164c2.436,0,4.769,1.098,6.106,3.087h0.068V74.057h1.543v28.299h-1.543V99.509z M297.996,94.157
			c0-3.67-2.504-6.552-6.346-6.552c-3.636,0-6.14,3.293-6.14,6.724c0,3.636,2.4,6.929,6.242,6.929
			C295.8,101.258,297.996,97.965,297.996,94.157z"/>
		<path fill="#70706F" d="M304.722,94.569c-0.104,4.013,2.675,6.688,6.346,6.688c2.47,0,4.459-1.475,5.591-3.602l1.304,0.755
			c-1.44,2.744-3.979,4.287-7.101,4.287c-4.699,0-7.684-3.808-7.684-8.301c0-4.425,3.053-8.232,7.684-8.232
			c4.803,0,7.649,3.842,7.615,8.404H304.722z M316.933,93.128c-0.377-2.915-2.778-5.522-6.037-5.522
			c-3.225,0-5.899,2.539-6.174,5.522H316.933z"/>
		<path fill="#70706F" d="M336.145,102.355h-1.543v-2.847h-0.068c-1.167,2.023-3.705,3.189-6.037,3.189
			c-4.803,0-7.821-3.738-7.821-8.369s2.984-8.164,7.752-8.164c2.436,0,4.769,1.098,6.106,3.087h0.068v-2.744h1.543V102.355z
			 M322.219,94.329c0,3.636,2.4,6.929,6.242,6.929c4.048,0,6.243-3.293,6.243-7.101c0-3.67-2.504-6.552-6.346-6.552
			C324.723,87.605,322.219,90.898,322.219,94.329z"/>
		<path fill="#70706F" d="M348.086,89.39c-0.515-1.098-1.544-1.784-2.778-1.784c-1.338,0-2.71,1.098-2.71,2.47
			c0,3.808,7.718,1.955,7.718,7.684c0,2.916-2.264,4.939-5.111,4.939c-2.641,0-4.802-1.612-5.453-4.185l1.509-0.48
			c0.583,1.887,1.853,3.225,3.944,3.225c1.99,0,3.567-1.578,3.567-3.567c0-1.955-1.509-2.572-3.087-3.121
			c-2.161-0.789-4.631-1.716-4.631-4.391c0-2.401,2.024-4.014,4.322-4.014c1.612,0,3.361,1.063,4.048,2.538L348.086,89.39z"/>
	</g>
</g>
</svg>
