<?xml version="1.0" encoding="utf-8"?>
<!-- Generator: Adobe Illustrator 17.0.0, SVG Export Plug-In . SVG Version: 6.00 Build 0)  -->
<!DOCTYPE svg PUBLIC "-//W3C//DTD SVG 1.1//EN" "http://www.w3.org/Graphics/SVG/1.1/DTD/svg11.dtd">
<svg version="1.1" id="Capa_1" xmlns="http://www.w3.org/2000/svg" xmlns:xlink="http://www.w3.org/1999/xlink" x="0px" y="0px"
	 width="201.625px" height="201.625px" viewBox="0 0 201.625 201.625" enable-background="new 0 0 201.625 201.625"
	 xml:space="preserve">
<g>
	<circle fill="#FFFFFF" cx="100.812" cy="100.812" r="100.812"/>
	<g>
		<g>
			<path fill="#545353" d="M87.596,83.917c0,0-4.935-14.058-4.223-15.007c0.712-0.949,8.02-3.44,13.832-8.364
				c3.977-3.368,13.574-13.004,15.778-15.314c1.246-1.305,2.491,1.493,3.339,3.77c0.093,0.248,16.947,47.608,15.286,50.574
				c-0.964,1.723-7.889-1.602-20.756-2.784c-5.573-0.512-17.622,1.301-18.512,0.174C91.016,95.288,87.596,83.917,87.596,83.917z"/>
			<path fill="#545353" d="M85.816,83.087c0,0-3.559-11.858-4.39-12.75c-0.831-0.893-16.608,1.836-21.888,8.954
				c-3.775,5.091-2.887,10.796-2.194,13.583c0.77,3.1,5.494,9.375,10.796,10.296c6.287,1.093,21.826-4.832,22.3-5.069
				c0.475-0.237,0.003-2.083-0.235-2.676C89.969,94.831,85.816,83.087,85.816,83.087z"/>
			<path fill="#FFFFFF" d="M86.766,95.899l-6.999-21.591c0,0-16.045,0.415-18.803,11.33c-2.137,8.453,4.808,12.991,6.584,13.821
				C73.004,102.008,82.323,97.611,86.766,95.899z"/>
			<path fill="#FFFFFF" d="M87.596,70.63l7.237,23.37c0,0,11.389-1.424,16.371-0.831c4.983,0.593,15.007,2.372,15.007,2.372
				s1.209,0.1,0.89-1.661c-0.463-2.56-12.634-41.937-13.583-42.53s-1.602,0.89-4.093,3.381c-2.491,2.491-7.949,8.542-13.761,11.863
				C92.14,68.61,87.596,70.63,87.596,70.63z"/>
			<path fill="#545353" d="M80.953,115.236c0,0-5.931-7.711-5.931-9.134s0.237-2.135,1.779-2.847
				c1.542-0.712,13.524-4.258,14.117-3.493c0.593,0.764,5.575,8.119,7.474,10.018c1.898,1.898,6.347,5.813,5.849,7.355
				c-0.923,2.858-11.589,5.687-13.76,6.05C85.52,124.015,80.953,115.236,80.953,115.236z"/>
			<path fill="#FFFFFF" d="M84.097,114.05c0,0-4.769-6.406-4.746-7.474c0.028-1.294,9.483-3.388,9.996-3.355
				c1.298,0.084,4.359,6.44,6.791,9.05c0.833,0.893,4.088,3.063,4.066,3.559c-0.022,0.496-9.505,3.518-11.1,3.447
				C87.508,119.204,84.097,114.05,84.097,114.05z"/>
			<path fill="#F2936B" d="M124.253,62.564l2.55-5.931c0,0,8.423,3.678,10.321,12.515c1.997,9.295-2.017,13.939-2.017,13.939
				l-4.657-2.432c0,0,2.699-4.39,0.387-10.796C128.729,64.011,124.253,62.564,124.253,62.564z"/>
			<path fill="#F2936B" d="M129.444,52.835l2.847-4.805c0,0,12.58,5.625,14.992,17.795c2.892,14.592-2.802,22.066-2.802,22.066
				l-4.983-3.025c0,0,4.716-11.478,0.801-20.998C137.445,56.928,129.444,52.835,129.444,52.835z"/>
		</g>
		<g>
			<path fill="#557478" d="M63.86,164.799v-18.092h4.091c1.626,0,2.786,0.48,3.479,1.439c0.584,0.817,0.876,2.081,0.876,3.791
				c0,1.46-0.254,2.678-0.763,3.654c-0.651,1.234-1.644,1.852-2.978,1.852H66.65v7.357L63.86,164.799L63.86,164.799z M66.65,154.852
				h1.101c0.759,0,1.26-0.309,1.501-0.926c0.142-0.359,0.213-1.005,0.213-1.94c0-0.893-0.088-1.514-0.263-1.864
				c-0.258-0.534-0.776-0.801-1.552-0.801H66.65L66.65,154.852L66.65,154.852z"/>
			<path fill="#557478" d="M81.052,151.449v13.35h-2.477v-1.464c-0.942,1.118-1.902,1.676-2.878,1.676
				c-1.16,0-1.739-0.793-1.739-2.38v-11.184h2.49v10.247c0,0.601,0.221,0.901,0.663,0.901s0.93-0.334,1.464-1.001v-10.147
				L81.052,151.449L81.052,151.449z"/>
			<path fill="#557478" d="M83.479,164.799v-18.092h2.515v5.818c0.684-0.843,1.418-1.263,2.202-1.263
				c1.61,0,2.415,1.119,2.415,3.356v7.414c0,1.962-0.755,2.943-2.265,2.943c-0.935,0-1.718-0.401-2.352-1.201v1.026L83.479,164.799
				L83.479,164.799z M85.994,162.259c0.375,0.409,0.767,0.613,1.176,0.613c0.584,0,0.876-0.401,0.876-1.201v-6.894
				c0-0.917-0.342-1.377-1.026-1.377c-0.359,0-0.7,0.179-1.026,0.538V162.259z"/>
			<path fill="#557478" d="M94.34,147.245v14.326c0,0.292,0.106,0.527,0.319,0.707c0.213,0.179,0.465,0.269,0.757,0.269
				c0.267,0,0.513-0.038,0.738-0.112v2.152c-0.442,0.142-0.913,0.213-1.414,0.213c-1.927,0-2.891-1.059-2.891-3.178v-14.376
				L94.34,147.245L94.34,147.245z"/>
			<path fill="#557478" d="M97.667,149.196v-2.49h2.515v2.49H97.667z M97.667,164.799v-13.35h2.515v13.35H97.667z"/>
			<path fill="#557478" d="M102.334,161.033v-5.893c0-1.184,0.325-2.144,0.976-2.878c0.675-0.767,1.597-1.151,2.765-1.151
				c1.16,0,2.052,0.371,2.678,1.113c0.584,0.693,0.876,1.631,0.876,2.815v1.051h-2.552v-1.076c0-1.043-0.359-1.564-1.076-1.564
				c-0.734,0-1.101,0.521-1.101,1.564v5.943c0,1.243,0.359,1.864,1.076,1.864c0.5,0,0.826-0.2,0.976-0.601
				c0.083-0.217,0.125-0.638,0.125-1.263v-1.026h2.552v1.101c0,2.753-1.239,4.129-3.716,4.129c-1.168,0-2.068-0.404-2.703-1.214
				C102.626,163.206,102.334,162.234,102.334,161.033z"/>
			<path fill="#557478" d="M111.706,149.196v-2.49h2.515v2.49H111.706z M111.706,164.799v-13.35h2.515v13.35H111.706z"/>
			<path fill="#557478" d="M121.24,164.799v-1.026c-0.634,0.801-1.418,1.202-2.352,1.202c-1.51,0-2.265-0.98-2.265-2.94v-7.407
				c0-2.236,0.805-3.353,2.415-3.353c0.784,0,1.518,0.417,2.202,1.251v-5.818h2.515V164.8L121.24,164.799L121.24,164.799z
				 M121.24,153.938c-0.325-0.359-0.668-0.538-1.026-0.538c-0.684,0-1.026,0.459-1.026,1.377v6.894c0,0.801,0.292,1.202,0.876,1.202
				c0.409,0,0.801-0.204,1.176-0.613V153.938z"/>
			<path fill="#557478" d="M132.927,155.227v5.993c0,1.142-0.338,2.077-1.014,2.803c-0.7,0.751-1.618,1.126-2.753,1.126
				c-1.135,0-2.008-0.34-2.622-1.02c-0.614-0.68-0.92-1.821-0.92-3.422c0-2.836,1.581-4.192,4.742-4.066v-1.339
				c0.009-1.243-0.35-1.864-1.076-1.864c-0.409,0-0.839,0.083-1.289,0.251l-1.001-1.952l2.002-0.601
				C131.617,151.086,132.927,152.449,132.927,155.227z M130.361,158.893h-2.214l0.038,2.352c0.016,1.043,0.375,1.564,1.076,1.564
				c0.742,0,1.11-0.521,1.101-1.564L130.361,158.893L130.361,158.893z"/>
			<path fill="#557478" d="M139.632,164.799v-1.026c-0.634,0.801-1.418,1.202-2.352,1.202c-1.51,0-2.265-0.98-2.265-2.94v-7.407
				c0-2.236,0.805-3.353,2.415-3.353c0.784,0,1.518,0.417,2.202,1.251v-5.818h2.515V164.8L139.632,164.799L139.632,164.799z
				 M139.632,153.938c-0.325-0.359-0.668-0.538-1.026-0.538c-0.684,0-1.026,0.459-1.026,1.377v6.894
				c0,0.801,0.292,1.202,0.876,1.202c0.409,0,0.801-0.204,1.176-0.613V153.938z"/>
		</g>
	</g>
</g>
</svg>
