<?xml version="1.0" encoding="utf-8"?>
<!-- Generator: Adobe Illustrator 17.0.0, SVG Export Plug-In . SVG Version: 6.00 Build 0)  -->
<!DOCTYPE svg PUBLIC "-//W3C//DTD SVG 1.1//EN" "http://www.w3.org/Graphics/SVG/1.1/DTD/svg11.dtd">
<svg version="1.1" id="Capa_1" xmlns="http://www.w3.org/2000/svg" xmlns:xlink="http://www.w3.org/1999/xlink" x="0px" y="0px"
	 width="201.625px" height="201.625px" viewBox="0 0 201.625 201.625" enable-background="new 0 0 201.625 201.625"
	 xml:space="preserve">
<g>
	<circle fill="#D8ECE8" cx="100.812" cy="100.812" r="100.812"/>
	<g>
		<rect x="53.677" y="45.242" fill="#FFFFFF" width="92.971" height="38.385"/>
		<rect x="69.148" y="69.294" fill="#F2936B" width="50.705" height="6.73"/>
		<path fill="#545353" d="M108.302,27.638h3.622c0,0,0.795,5.234-2.664,5.889H88.042c0,0-1.496-0.023-1.589,1.682
			c-0.063,1.144,0.841,1.682,0.841,1.682h0.374h11.719c0,0,2.764-0.002,2.815,2.453c0.023,1.122,0.047,3.248,0.047,3.248h44.305
			c0,0,1.888,0.263,2.243,1.344c0.176,0.538,0.093,2.115,0.093,2.115l0.083,37.575h-3.261V46.114H55.421v37.513h-3.614V44.992
			c0,0,0.218-0.935,1.009-1.57c0.766-0.615,1.788-0.853,1.788-0.853l43.936,0.002c0,0,0.088-1.965-0.076-2.035H86.781
			c0,0-4.045-1.078-4.066-4.487c-0.023-3.855,1.976-5.035,3.108-5.492h22.339C108.161,30.559,108.395,30.629,108.302,27.638z"/>
		<rect x="59.77" y="69.294" fill="#F2936B" width="6.73" height="6.73"/>
		<g>
			<path fill="#545353" d="M115.709,127.09h18.834h3.599v-10.142c0,0-0.608-1.169-1.496-1.496c-0.544-0.2-0.888-0.328-0.888-0.328
				l0.187-3.599c0,0,4.58-9.488,5.047-11.45V84.934c0,0-0.935-2.524-2.477-3.225c-2.017-0.917-3.879-0.187-3.879-0.187
				s-0.795-3.178-4.627-3.319c-2.382-0.087-3.271,0.935-3.271,0.935s-0.374-1.169-2.384-1.262c-1.125-0.052-1.916,0.701-1.916,0.701
				v-6.216c0,0-0.841-4.819-5.047-4.814c-2.764,0.004-4.673,2.617-4.814,4.393v14.722c0,0-2.762-0.265-3.926,0.608
				c-1.496,1.122-1.869,2.384-1.869,2.384v12.151c0,0,2.197,3.319,4.16,5.842c1.963,2.524,3.319,4.3,3.319,4.3l0.187,3.178
				c0,0-1.776,0.748-1.916,2.056l-0.047,9.908h3.227V127.09z"/>
			<rect x="115.896" y="117.743" fill="#F2936B" width="18.834" height="9.347"/>
			<path fill="#FFFFFF" d="M117.492,114.16h15.641v-3.49c0,0,1.309-4.113,2.305-6.044c0.997-1.931,1.931-3.427,2.181-5.546V86.368
				c0,0,0.265-1.34-1.371-1.371c-1.916-0.037-1.379,1.854-1.558,3.427h-3.178v-5.919c0,0-0.171-1.005-1.433-1.122
				c-0.963-0.089-1.433,1.184-1.433,1.184V88.3h-3.49v-5.795c0,0-0.086-1.302-1.496-1.152c-0.942,0.1-1.122,1.128-1.122,1.128v5.631
				h-3.49V72.659c0,0,0.098-1.309-1.558-1.309c-1.527,0-1.558,1.371-1.558,1.371v22.807h-2.929V91.29c0,0,0.039-1.519-1.371-1.62
				c-1.492-0.107-1.496,1.496-1.496,1.496v7.602c0,0,1.558,2.866,2.804,5.172c1.247,2.305,4.541,6.208,4.541,6.208L117.492,114.16z"
				/>
		</g>
		<g>
			<path fill="#545353" d="M85.046,127.09H66.211h-3.599v-10.142c0,0,0.608-1.169,1.496-1.496c0.544-0.2,0.888-0.328,0.888-0.328
				l-0.187-3.599c0,0-4.58-9.488-5.047-11.45V77.736c0,0,1.239-2.579,2.856-3.084c2.991-0.935,3.739-0.093,3.739-0.093
				s0.299-3.15,4.113-3.552c1.776-0.187,2.617,0.342,2.617,0.342s0.689-3.326,2.991-3.614c4.487-0.561,4.829,3.864,4.829,3.864
				s0.726-0.695,3.084-0.873c0.748-0.056,4.206,0.612,4.185,4.611v11.559c0,0,2.762-0.499,3.926,0.374
				c1.496,1.122,1.869,2.384,1.869,2.384v12.151c0,0-2.197,3.319-4.16,5.842c-1.963,2.524-3.319,4.3-3.319,4.3l-0.187,3.178
				c0,0,1.776,0.748,1.916,2.056l0.047,9.908L85.046,127.09L85.046,127.09z"/>
			<rect x="66.024" y="117.743" fill="#F2936B" width="18.834" height="9.347"/>
			<path fill="#FFFFFF" d="M83.262,114.16H67.622v-3.49c0,0-1.309-4.113-2.305-6.044c-0.997-1.931-1.931-3.427-2.181-5.546V78.906
				c0,0,0.332-1.131,1.371-1.262c0.995-0.125,1.68,0.203,1.898,1.402v9.378h2.838v-12.93c0,0,0.171-1.098,1.433-1.215
				c0.963-0.089,1.433,0.841,1.433,0.841v13.179h3.49V72.69c0,0,0.239-1.49,1.649-1.34c0.942,0.1,0.968,1.527,0.968,1.527v15.236
				h3.49V75.775c0,0-0.098-1.745,1.558-1.745c1.527,0,1.558,1.62,1.558,1.62v19.878h2.929v-4.238c0,0-0.039-1.519,1.371-1.62
				c1.492-0.107,1.496,1.496,1.496,1.496v7.602c0,0-1.558,2.866-2.804,5.172c-1.247,2.305-4.541,6.208-4.541,6.208L83.262,114.16z"
				/>
		</g>
		<rect x="64.145" y="50.6" fill="#F2936B" width="6.73" height="6.73"/>
		<rect x="82.849" y="50.6" fill="#F2936B" width="6.73" height="6.73"/>
		<rect x="92.446" y="50.6" fill="#F2936B" width="6.73" height="6.73"/>
		<rect x="101.793" y="50.6" fill="#F2936B" width="6.73" height="6.73"/>
		<rect x="73.51" y="50.6" fill="#F2936B" width="6.73" height="6.73"/>
		<rect x="111.397" y="50.6" fill="#F2936B" width="6.73" height="6.73"/>
		<rect x="120.523" y="50.6" fill="#F2936B" width="6.73" height="6.73"/>
		<rect x="129.62" y="50.6" fill="#F2936B" width="6.73" height="6.73"/>
		<rect x="134.271" y="59.823" fill="#F2936B" width="6.73" height="6.73"/>
		<rect x="125.547" y="59.823" fill="#F2936B" width="6.73" height="6.73"/>
		<rect x="115.758" y="59.823" fill="#F2936B" width="6.73" height="6.73"/>
		<rect x="107.034" y="59.823" fill="#F2936B" width="6.73" height="6.73"/>
		<rect x="96.807" y="59.823" fill="#F2936B" width="6.73" height="6.73"/>
		<rect x="88.083" y="59.823" fill="#F2936B" width="6.73" height="6.73"/>
		<rect x="77.872" y="59.823" fill="#F2936B" width="6.73" height="6.73"/>
		<rect x="69.148" y="59.823" fill="#F2936B" width="6.73" height="6.73"/>
		<rect x="59.77" y="59.823" fill="#F2936B" width="6.73" height="6.73"/>
		<rect x="134.271" y="69.294" fill="#F2936B" width="6.73" height="6.73"/>
		<rect x="125.547" y="69.294" fill="#F2936B" width="6.73" height="6.73"/>
		<rect x="91.448" y="78.267" fill="#F2936B" width="4.362" height="3.864"/>
		<rect x="97.991" y="78.267" fill="#F2936B" width="4.362" height="3.864"/>
		<rect x="104.627" y="78.267" fill="#F2936B" width="4.362" height="3.864"/>
		<g>
			<path fill="#557478" d="M45.386,165.942v-19.006h4.298c1.709,0,2.927,0.504,3.654,1.511c0.613,0.858,0.92,2.186,0.92,3.983
				c0,1.534-0.267,2.813-0.802,3.838c-0.683,1.297-1.727,1.946-3.129,1.946h-2.011v7.729L45.386,165.942L45.386,165.942z
				 M48.318,155.492h1.157c0.797,0,1.324-0.325,1.577-0.973c0.149-0.377,0.224-1.056,0.224-2.038c0-0.938-0.092-1.59-0.276-1.958
				c-0.271-0.561-0.815-0.841-1.63-0.841h-1.051V155.492z"/>
			<path fill="#557478" d="M56.06,165.942v-14.025h2.642v1.906c0.666-1.376,1.59-2.064,2.773-2.064h0.263v2.931
				c-0.245-0.123-0.53-0.184-0.855-0.184c-1.454,0-2.182,0.754-2.182,2.26v9.175H56.06z"/>
			<path fill="#557478" d="M62.882,155.124c0-1.131,0.368-2.015,1.104-2.655c0.701-0.605,1.626-0.907,2.773-0.907
				c1.077,0,1.961,0.337,2.649,1.012c0.688,0.675,1.032,1.551,1.032,2.629v7.243c0,1.2-0.335,2.142-1.006,2.826
				c-0.671,0.683-1.602,1.025-2.793,1.025c-1.166,0-2.085-0.363-2.76-1.091c-0.666-0.701-0.999-1.638-0.999-2.813L62.882,155.124
				L62.882,155.124z M65.576,162.655c0,0.806,0.355,1.209,1.065,1.209c0.763,0,1.143-0.403,1.143-1.209v-7.637
				c0-0.683-0.381-1.025-1.143-1.025c-0.71,0-1.065,0.342-1.065,1.025V162.655z"/>
			<path fill="#557478" d="M73.948,161.828c-1.139-0.71-1.709-1.814-1.709-3.313v-2.8c0-1.244,0.28-2.23,0.84-2.957
				c0.621-0.797,1.535-1.196,2.742-1.196c1.164,0,2.173,0.521,3.031,1.564c0.315,0.578,0.473,0.982,0.473,1.209
				c0,0.061,0,0.109,0,0.144c0,0.316,0,0.627,0,0.933v3.129c0,2.533-1.122,3.79-3.365,3.772c-0.061,0-0.271-0.017-0.631-0.052
				c-0.026,0-0.048-0.005-0.066-0.013c-0.412,0.307-0.618,0.605-0.618,0.894c0,0.403,0.513,0.636,1.538,0.697
				c0.639,0.035,1.131,0.079,1.472,0.132c2.208,0.325,3.313,1.376,3.313,3.155c0,2.208-1.687,3.313-5.061,3.313
				c-2.927,0-4.39-0.745-4.39-2.234c0-0.464,0.197-0.894,0.591-1.288c0.333-0.333,0.916-0.666,1.748-0.999
				c-1.077-0.271-1.617-0.811-1.617-1.617C72.24,163.484,72.81,162.66,73.948,161.828z M75.395,166.27
				c-0.666,0.307-0.999,0.674-0.999,1.104c0,0.368,0.236,0.657,0.71,0.867c0.368,0.158,0.763,0.236,1.183,0.236
				c0.517,0,0.986-0.07,1.407-0.21c0.605-0.21,0.907-0.521,0.907-0.933C78.602,166.643,77.532,166.288,75.395,166.27z
				 M76.933,158.673v-3.259c0-0.947-0.386-1.419-1.157-1.419c-0.754,0-1.131,0.473-1.131,1.419v3.259
				c0,0.955,0.377,1.433,1.131,1.433C76.547,160.106,76.933,159.628,76.933,158.673z"/>
			<path fill="#557478" d="M81.993,165.942v-14.025h2.642v1.906c0.666-1.376,1.59-2.064,2.773-2.064h0.263v2.931
				c-0.245-0.123-0.53-0.184-0.855-0.184c-1.454,0-2.182,0.754-2.182,2.26v9.175H81.993z"/>
			<path fill="#557478" d="M96.465,155.887v6.296c0,1.2-0.355,2.182-1.065,2.945c-0.736,0.789-1.7,1.183-2.892,1.183
				c-1.192,0-2.109-0.357-2.754-1.072c-0.645-0.714-0.966-1.913-0.966-3.595c0-2.979,1.661-4.404,4.982-4.272v-1.407
				c0.009-1.306-0.368-1.958-1.131-1.958c-0.429,0-0.881,0.087-1.354,0.263l-1.051-2.05l2.103-0.631
				C95.089,151.535,96.465,152.968,96.465,155.887z M93.77,159.738h-2.326l0.04,2.471c0.017,1.095,0.394,1.643,1.131,1.643
				c0.78,0,1.166-0.547,1.157-1.643L93.77,159.738L93.77,159.738z"/>
			<path fill="#557478" d="M98.659,165.942v-14.025h2.642v1.459c0.903-1.104,1.88-1.656,2.931-1.656
				c0.999,0,1.621,0.552,1.866,1.656c0.876-1.104,1.845-1.656,2.905-1.656c1.288,0,1.932,0.791,1.932,2.373v11.85h-2.642v-10.581
				c0-0.736-0.233-1.104-0.697-1.104c-0.455,0-0.955,0.351-1.499,1.051v10.634h-2.432v-10.581c0-0.736-0.25-1.104-0.749-1.104
				c-0.491,0-1.03,0.351-1.617,1.051v10.634L98.659,165.942L98.659,165.942z"/>
			<path fill="#557478" d="M120.795,155.887v6.296c0,1.2-0.355,2.182-1.065,2.945c-0.736,0.789-1.7,1.183-2.892,1.183
				c-1.192,0-2.109-0.357-2.754-1.072c-0.645-0.714-0.966-1.913-0.966-3.595c0-2.979,1.661-4.404,4.982-4.272v-1.407
				c0.009-1.306-0.368-1.958-1.131-1.958c-0.429,0-0.881,0.087-1.354,0.263l-1.051-2.05l2.103-0.631
				C119.419,151.535,120.795,152.968,120.795,155.887z M118.1,159.738h-2.326l0.04,2.471c0.017,1.095,0.394,1.643,1.131,1.643
				c0.78,0,1.166-0.547,1.157-1.643L118.1,159.738L118.1,159.738z"/>
			<path fill="#557478" d="M122.727,161.985v-6.191c0-1.244,0.342-2.252,1.025-3.023c0.71-0.806,1.678-1.209,2.905-1.209
				c1.218,0,2.156,0.39,2.813,1.169c0.613,0.728,0.92,1.713,0.92,2.957v1.104h-2.681v-1.131c0-1.095-0.377-1.643-1.131-1.643
				c-0.771,0-1.157,0.547-1.157,1.643v6.244c0,1.306,0.377,1.958,1.131,1.958c0.526,0,0.867-0.21,1.025-0.631
				c0.087-0.228,0.132-0.67,0.132-1.327v-1.078h2.681v1.157c0,2.892-1.301,4.338-3.904,4.338c-1.227,0-2.173-0.425-2.839-1.275
				C123.033,164.268,122.727,163.247,122.727,161.985z"/>
			<path fill="#557478" d="M132.572,149.551v-2.616h2.642v2.616H132.572z M132.572,165.942v-14.025h2.642v14.025H132.572z"/>
			<path fill="#557478" d="M137.474,155.124c0-1.131,0.368-2.015,1.104-2.655c0.701-0.605,1.626-0.907,2.773-0.907
				c1.077,0,1.961,0.337,2.649,1.012s1.032,1.551,1.032,2.629v7.243c0,1.2-0.335,2.142-1.006,2.826
				c-0.671,0.683-1.602,1.025-2.793,1.025c-1.166,0-2.085-0.363-2.76-1.091c-0.666-0.701-0.999-1.638-0.999-2.813L137.474,155.124
				L137.474,155.124z M141.891,150.602h-2.13l1.275-2.918h3.339L141.891,150.602z M140.169,162.655c0,0.806,0.355,1.209,1.065,1.209
				c0.763,0,1.143-0.403,1.143-1.209v-7.637c0-0.683-0.381-1.025-1.143-1.025c-0.71,0-1.065,0.342-1.065,1.025V162.655z"/>
			<path fill="#557478" d="M147.293,165.942v-14.025h2.642v1.538c0.99-1.157,1.985-1.735,2.984-1.735c1.227,0,1.84,0.825,1.84,2.474
				v11.749h-2.616v-10.581c0-0.736-0.233-1.104-0.697-1.104c-0.447,0-0.95,0.351-1.511,1.051v10.634L147.293,165.942
				L147.293,165.942z"/>
		</g>
	</g>
</g>
</svg>
