<?xml version="1.0" encoding="utf-8"?>
<!-- Generator: Adobe Illustrator 17.0.0, SVG Export Plug-In . SVG Version: 6.00 Build 0)  -->
<!DOCTYPE svg PUBLIC "-//W3C//DTD SVG 1.1//EN" "http://www.w3.org/Graphics/SVG/1.1/DTD/svg11.dtd">
<svg version="1.1" id="Capa_1" xmlns="http://www.w3.org/2000/svg" xmlns:xlink="http://www.w3.org/1999/xlink" x="0px" y="0px"
	 width="719.992px" height="54.019px" viewBox="0 0 719.992 54.019" enable-background="new 0 0 719.992 54.019"
	 xml:space="preserve">
<g>
	<polyline fill="#70C1AC" points="683.854,54.019 0.059,53.992 0,45.565 261.309,44.85 270.314,0.248 451.012,0 459.428,44.85 
		719.992,44.84 719.992,53.998 683.854,54.019 	"/>
	<g>
		<path fill="#FFFFFF" d="M287.749,15.26h4.257v10.772c0,2.374,0.231,5.719,3.852,5.719s3.852-3.345,3.852-5.719V15.26h4.257v11.513
			c0,4.697-2.259,8.246-8.109,8.246s-8.109-3.549-8.109-8.246V15.26z"/>
		<path fill="#FFFFFF" d="M311.238,34.508h-4.257V15.26h4.257V34.508z"/>
		<path fill="#FFFFFF" d="M321.433,34.508h-4.257v-15.98h-4.402V15.26h13.062v3.268h-4.402V34.508z"/>
		<path fill="#FFFFFF" d="M331.658,18.527v4.237h6.776v3.268h-6.776v5.208h7.037v3.268H327.4V15.26h11.295v3.268H331.658z"/>
		<path fill="#FFFFFF" d="M356.131,20.365c-1.188-1.276-2.982-2.042-4.808-2.042c-4.083,0-6.429,3.318-6.429,6.637
			c0,3.242,2.433,6.484,6.4,6.484c1.824,0,3.648-0.843,4.836-2.042v4.467c-1.593,0.664-3.186,1.149-4.952,1.149
			c-6.14,0-10.687-4.672-10.687-9.981c0-5.463,4.373-10.288,10.773-10.288c1.709,0,3.389,0.408,4.865,1.123V20.365z"/>
		<path fill="#FFFFFF" d="M358.942,14.749h3.07l11.498,13.453h0.058V15.26h4.257V34.89h-3.069l-11.498-13.453h-0.058v13.07h-4.258
			V14.749z"/>
		<path fill="#FFFFFF" d="M390.686,35.018c-6.661,0-10.803-4.493-10.803-10.16c0-5.719,4.286-10.109,10.803-10.109
			c6.516,0,10.802,4.391,10.802,10.109C401.488,30.525,397.347,35.018,390.686,35.018z M390.686,18.451c-4.026,0-6.4,3.14-6.4,6.254
			c0,2.961,1.68,6.611,6.4,6.611s6.4-3.65,6.4-6.611C397.086,21.591,394.711,18.451,390.686,18.451z"/>
		<path fill="#FFFFFF" d="M408.789,32.721c0,1.251-1.159,2.298-2.578,2.298s-2.577-1.047-2.577-2.298s1.158-2.246,2.577-2.246
			S408.789,31.47,408.789,32.721z"/>
		<path fill="#FFFFFF" d="M426.542,20.365c-1.188-1.276-2.982-2.042-4.808-2.042c-4.083,0-6.429,3.318-6.429,6.637
			c0,3.242,2.433,6.484,6.4,6.484c1.824,0,3.648-0.843,4.836-2.042v4.467c-1.593,0.664-3.186,1.149-4.952,1.149
			c-6.14,0-10.687-4.672-10.687-9.981c0-5.463,4.373-10.288,10.773-10.288c1.709,0,3.389,0.408,4.865,1.123V20.365z"/>
		<path fill="#FFFFFF" d="M433.611,31.24h6.023v3.268h-10.281V15.26h4.258V31.24z"/>
	</g>
</g>
</svg>
