<?xml version="1.0" encoding="utf-8"?>
<!-- Generator: Adobe Illustrator 17.0.0, SVG Export Plug-In . SVG Version: 6.00 Build 0)  -->
<!DOCTYPE svg PUBLIC "-//W3C//DTD SVG 1.1//EN" "http://www.w3.org/Graphics/SVG/1.1/DTD/svg11.dtd">
<svg version="1.1" id="Capa_1" xmlns="http://www.w3.org/2000/svg" xmlns:xlink="http://www.w3.org/1999/xlink" x="0px" y="0px"
	 width="379.57px" height="77.021px" viewBox="0 0 379.57 77.021" enable-background="new 0 0 379.57 77.021" xml:space="preserve">
<g>
	<g>
		<g>
			<path fill="#F2936B" d="M81.451,0.307c2.664-0.632,5.645-0.324,7.939,1.252c2.84,1.769,4.528,5.185,4.248,8.514
				c-0.128,3.025-1.86,5.907-4.462,7.454c-4.096,2.615-10.103,1.536-12.914-2.463c-2.525-3.448-2.388-8.743,0.579-11.892
				C78.071,1.806,79.66,0.744,81.451,0.307z"/>
			<path fill="#F2936B" d="M75.498,27.629c5.731,0,11.464,0,17.195,0c0,15.829,0.004,31.665-0.004,47.494
				c-5.722-0.004-11.444,0-17.167-0.004C75.465,59.29,75.511,43.459,75.498,27.629z"/>
		</g>
		<g>
			<path fill="#73C2AD" d="M0.038,2.524C5.617,2.451,11.2,2.509,16.782,2.495c0.104,14.884,0,29.768,0.057,44.645
				c0.152,4.081,0.969,8.476,3.882,11.544c2.644,2.915,6.868,3.611,10.627,3.406c3.915-0.181,7.952-1.987,10.052-5.414
				c1.655-2.706,2.151-5.945,2.298-9.06c0.013-15.045-0.004-30.085,0.009-45.126c5.566,0.009,11.125,0,16.691,0.004
				c0.057,15.516,0.013,31.033,0.02,46.549c-0.099,7.544-2.602,15.501-8.435,20.582c-5.727,5.103-13.632,6.826-21.115,6.93
				c-7.168,0.104-14.721-1.166-20.615-5.513c-5.37-3.744-8.562-9.97-9.613-16.325c-0.353-2.521-0.694-5.057-0.632-7.606
				C0.034,32.252-0.024,17.388,0.038,2.524z"/>
		</g>
		<g>
			<path fill="#545353" d="M114.687,7.918c4.237-0.077,8.481,0,12.72-0.033c0.02,6.108,0,12.211,0.009,18.317
				c2.536,0,5.074-0.004,7.611,0c0,3.649,0,7.291,0,10.94c-2.541,0-5.074,0-7.611,0c-0.004,12.868,0.004,25.733-0.004,38.601
				c-4.301,0-8.604,0.004-12.91-0.004c-0.004-12.861,0-25.729,0-38.59c-2.197-0.009-4.391-0.004-6.588-0.004
				c0-3.649,0-7.291,0-10.94c2.197-0.004,4.391,0.004,6.588-0.004c0.024-6.046-0.057-12.092,0.037-18.136L114.687,7.918z"/>
			<g>
				<path fill="#545353" d="M153.026,28.517c6.284-3.702,14.003-4.2,21.029-2.745c7.782,1.631,14.626,7.212,17.68,14.56
					c1.917,4.495,2.393,9.461,2.175,14.302c-13.628,0.077-27.256,0-40.888,0.037c0.767,4.101,3.338,7.906,7.196,9.651
					c6.374,2.864,14.428,1.547,19.445-3.373c3.6,1.721,7.311,3.219,10.845,5.074c-4.043,5.965-10.779,9.913-17.942,10.627
					c-4.519,0.661-9.175,0.432-13.599-0.727c-8.148-2.122-15.06-8.633-17.453-16.735c-1.465-4.966-1.432-10.303-0.201-15.311
					C142.922,37.441,147.37,31.9,153.026,28.517z M158.363,38.611c-2.179,1.478-3.468,3.867-4.676,6.136
					c9.076,0,18.156,0.024,27.232-0.009c-0.509-1.474-1.276-2.849-2.278-4.048C173.723,34.954,164.414,34.321,158.363,38.611z"/>
			</g>
			<path fill="#545353" d="M222.634,26.303c5.632-1.589,11.669-1.675,17.372-0.394c6.24,1.465,12.092,5.118,15.66,10.512
				c-3.525,1.965-7.135,3.777-10.669,5.731c-2.06-1.761-4.167-3.644-6.806-4.466c-4.396-1.371-9.294-1.247-13.542,0.591
				c-4.129,1.789-7.306,5.652-8.111,10.098c-0.586,3.572-0.218,7.463,1.818,10.541c2.23,3.605,6.255,5.874,10.426,6.35
				c4.338,0.538,9.01-0.042,12.7-2.525c1.318-0.8,2.349-1.959,3.477-2.997c3.316,2.203,6.626,4.413,9.942,6.617
				c-0.013,0.123-0.037,0.377-0.048,0.5c-4.266,5.431-10.746,8.928-17.581,9.761c-7.862,1.08-16.411,0.077-23.085-4.491
				c-5.579-3.937-9.699-10.118-10.669-16.924c-0.936-5.627,0.115-11.592,2.964-16.543C209.854,32.519,215.984,28.233,222.634,26.303
				z"/>
			<path fill="#545353" d="M281.469,31.106c3.735-3.005,8.078-5.608,12.967-5.973c5.846-0.69,12.059,1.498,15.853,6.07
				c2.545,3.124,3.373,7.254,3.519,11.187c-0.013,11.112,0,22.219-0.009,33.331c-4.323,0.062-8.648,0.004-12.976,0.029
				c-0.082-8.587,0.009-17.171-0.042-25.753c-0.271-3.305,0.024-6.888-1.721-9.856c-1.304-2.311-3.957-3.658-6.584-3.547
				c-3.263-0.209-6.416,1.593-8.247,4.237c-1.868,2.644-2.62,5.932-2.688,9.129c-0.172,8.587-0.042,17.175-0.086,25.762
				c-4.323,0.062-8.644,0-12.967,0.033c-0.095-16.514-0.009-33.031-0.037-49.546c4.334-0.009,8.67-0.009,13.009,0
				C281.451,27.839,281.451,29.474,281.469,31.106z"/>
			<g>
				<path fill="#545353" d="M347.745,25.402c6.65-1.084,13.71,0.148,19.436,3.752c6.308,3.724,10.832,10.307,12.024,17.537
					c1.298,7.397-0.923,15.245-5.76,20.972c-7.959,9.532-22.741,12.081-33.611,6.264c-6.535-3.605-11.777-9.904-13.247-17.314
					c-1.251-6.374-0.427-13.32,3.078-18.874C333.641,31.386,340.333,26.697,347.745,25.402z M348.758,37.424
					c-5.365,1.445-9.413,6.54-9.699,12.077c-0.333,4.109,0.641,8.595,3.682,11.555c5,5.612,14.798,5.55,19.872,0.062
					c3.268-3.21,4.305-8.086,3.682-12.511c-0.476-4.548-3.521-8.714-7.705-10.545C355.503,36.763,351.986,36.586,348.758,37.424z"/>
			</g>
		</g>
	</g>
</g>
</svg>
