<?xml version="1.0" encoding="utf-8"?>
<!-- Generator: Adobe Illustrator 17.0.0, SVG Export Plug-In . SVG Version: 6.00 Build 0)  -->
<!DOCTYPE svg PUBLIC "-//W3C//DTD SVG 1.1//EN" "http://www.w3.org/Graphics/SVG/1.1/DTD/svg11.dtd">
<svg version="1.1" id="Capa_1" xmlns="http://www.w3.org/2000/svg" xmlns:xlink="http://www.w3.org/1999/xlink" x="0px" y="0px"
	 width="358.482px" height="121.494px" viewBox="0 0 358.482 121.494" enable-background="new 0 0 358.482 121.494"
	 xml:space="preserve">
<path fill="#70706F" d="M2.849,119.276L2.849,119.276c-1.096,0-1.985-0.889-1.985-1.985V4.222c0-1.096,0.889-1.985,1.985-1.985h0
	c1.096,0,1.985,0.889,1.985,1.985V117.29C4.835,118.387,3.946,119.276,2.849,119.276z"/>
<g>
	<path fill="#70706F" d="M31.006,13.984c2.931,0,4.996,0.297,6.197,0.886c1.2,0.591,1.801,1.313,1.801,2.167
		c0,0.449-0.091,0.927-0.274,1.436c-0.184,0.51-0.499,0.987-0.946,1.435c-0.448-0.325-1.201-0.661-2.259-1.007
		c-1.06-0.346-2.301-0.52-3.725-0.52c-1.832,0-3.277,0.377-4.335,1.129c-1.06,0.754-1.587,1.781-1.587,3.084
		c0,1.141,0.232,2.158,0.701,3.053c0.468,0.896,1.17,1.893,2.106,2.992l6.595,7.51c0.771,0.937,1.424,1.822,1.953,2.655
		c0.529,0.835,0.956,1.669,1.282,2.503c0.325,0.835,0.55,1.67,0.671,2.504c0.123,0.834,0.184,1.72,0.184,2.656
		c0,1.547-0.184,3.012-0.549,4.396c-0.367,1.384-0.968,2.604-1.801,3.663c-0.836,1.059-1.955,1.893-3.359,2.504
		c-1.404,0.609-3.144,0.915-5.22,0.915c-2.769,0-4.792-0.396-6.075-1.19c-1.281-0.793-1.923-1.617-1.923-2.473
		c0-0.488,0.101-1.059,0.306-1.709c0.203-0.651,0.528-1.262,0.977-1.832c0.65,0.57,1.496,1.068,2.533,1.496
		c1.039,0.427,2.29,0.641,3.756,0.641c2.197,0,3.744-0.569,4.64-1.709c0.896-1.14,1.343-2.646,1.343-4.519
		c0-1.384-0.254-2.665-0.763-3.847c-0.509-1.18-1.435-2.543-2.778-4.09l-6.166-7.145c-1.385-1.709-2.361-3.245-2.931-4.609
		c-0.571-1.363-0.854-2.757-0.854-4.182c0-2.564,0.885-4.672,2.655-6.32S27.546,13.984,31.006,13.984z"/>
	<path fill="#70706F" d="M53.474,26.195c5.168,0,7.754,3.277,7.754,9.83c0,1.344-0.052,2.729-0.152,4.152
		c-0.103,1.426-0.275,2.686-0.52,3.785c-1.059,0.204-2.178,0.366-3.357,0.488c-1.182,0.123-2.352,0.225-3.512,0.306
		c-1.16,0.082-2.249,0.132-3.266,0.152c-1.018,0.021-1.893,0.03-2.625,0.03c0.039,1.629,0.191,2.973,0.457,4.029
		c0.265,1.06,0.62,1.894,1.068,2.504c0.447,0.611,1.018,1.038,1.71,1.282c0.691,0.244,1.505,0.366,2.442,0.366
		c1.221,0,2.421-0.172,3.602-0.52c1.181-0.345,2.299-0.803,3.358-1.373c0.162,0.448,0.274,0.998,0.336,1.648
		c0.062,0.651,0.091,1.221,0.091,1.709c0,0.489-0.224,0.938-0.671,1.344c-0.448,0.407-1.06,0.764-1.831,1.068
		c-0.774,0.305-1.67,0.539-2.688,0.702c-1.018,0.162-2.096,0.244-3.235,0.244c-1.425,0-2.738-0.183-3.938-0.55
		c-1.201-0.365-2.229-1.068-3.083-2.105c-0.854-1.039-1.526-2.493-2.015-4.365c-0.488-1.873-0.732-4.295-0.732-7.266
		c0-3.826,0.314-6.889,0.945-9.189c0.631-2.299,1.445-4.061,2.443-5.281c0.996-1.221,2.146-2.024,3.449-2.412
		C50.808,26.389,52.13,26.195,53.474,26.195z M52.924,30.531c-0.61,0-1.201,0.152-1.771,0.457c-0.57,0.306-1.09,0.855-1.557,1.648
		c-0.469,0.795-0.855,1.854-1.16,3.176c-0.306,1.322-0.499,3.021-0.58,5.098c0.569,0,1.221,0,1.953,0s1.476-0.03,2.229-0.092
		c0.753-0.061,1.486-0.131,2.198-0.213s1.333-0.203,1.862-0.367c0.122-0.569,0.203-1.18,0.244-1.832
		c0.04-0.65,0.061-1.26,0.061-1.831c-0.041-2.198-0.305-3.755-0.793-4.671S54.226,30.531,52.924,30.531z"/>
	<path fill="#70706F" d="M65.562,28.943c1.18-0.813,2.482-1.475,3.907-1.984c1.425-0.508,2.89-0.764,4.396-0.764
		c1.547,0,2.646,0.225,3.298,0.672c0.65,0.449,0.977,1.079,0.977,1.893c0,0.326-0.041,0.764-0.122,1.313
		c-0.082,0.551-0.225,1.09-0.428,1.619c-0.937-0.488-1.913-0.732-2.93-0.732c-0.693,0-1.396,0.111-2.107,0.335
		s-1.354,0.58-1.923,1.068l-0.062,23.995c0,0.244-0.029,0.438-0.091,0.58s-0.245,0.244-0.55,0.305s-0.805,0.092-1.496,0.092
		c-0.692,0-1.648,0-2.869,0V28.943z"/>
	<path fill="#70706F" d="M79.97,28.332c-0.082-0.366-0.102-0.661-0.061-0.886c0.039-0.223,0.232-0.375,0.58-0.457
		c0.345-0.082,0.895-0.133,1.648-0.153c0.752-0.021,1.801-0.03,3.144-0.03l1.954,9.769c0.325,1.587,0.631,3.288,0.916,5.099
		c0.283,1.811,0.528,3.49,0.732,5.037c0.244,1.791,0.488,3.562,0.732,5.311h0.122c0.203-1.79,0.427-3.58,0.672-5.372
		c0.203-1.546,0.437-3.215,0.702-5.007c0.264-1.791,0.559-3.5,0.885-5.129l1.648-8.608c0.041-0.284,0.102-0.497,0.184-0.641
		c0.081-0.143,0.295-0.245,0.641-0.306s0.855-0.102,1.527-0.122c0.671-0.021,1.637-0.03,2.899-0.03l-7.021,30.711
		c-0.449,0.08-1.039,0.131-1.771,0.152c-0.732,0.02-1.303,0.03-1.709,0.03c-0.57,0-1.029-0.285-1.374-0.854
		c-0.347-0.57-0.621-1.282-0.824-2.137L79.97,28.332z"/>
	<path fill="#70706F" d="M107.75,56.357c0,0.244-0.03,0.438-0.092,0.58c-0.061,0.143-0.254,0.244-0.58,0.305
		s-0.824,0.092-1.496,0.092c-0.671,0-1.639,0-2.899,0V29.065c0-0.569,0.07-1.007,0.214-1.313c0.143-0.306,0.406-0.528,0.793-0.672
		c0.387-0.142,0.906-0.224,1.558-0.244c0.65-0.021,1.485-0.03,2.503-0.03V56.357z M102.744,17.098
		c0.039-1.099,0.283-1.984,0.732-2.655c0.447-0.672,1.16-1.008,2.137-1.008c0.936,0,1.588,0.266,1.953,0.793
		c0.367,0.53,0.529,1.445,0.488,2.748c0,1.262-0.234,2.239-0.701,2.931c-0.469,0.692-1.171,1.038-2.106,1.038
		c-0.815,0-1.435-0.284-1.862-0.855C102.957,19.521,102.744,18.523,102.744,17.098z"/>
	<path fill="#70706F" d="M128.507,28.943c0,0.326-0.041,0.732-0.121,1.221c-0.082,0.488-0.225,0.998-0.428,1.527
		c-0.488-0.285-1.121-0.539-1.893-0.764c-0.773-0.223-1.568-0.336-2.381-0.336c-0.733,0-1.457,0.122-2.168,0.367
		c-0.713,0.244-1.354,0.783-1.924,1.617c-0.57,0.835-1.037,2.056-1.404,3.664c-0.365,1.607-0.549,3.775-0.549,6.502
		c0,2.158,0.111,3.928,0.336,5.312c0.223,1.384,0.559,2.483,1.008,3.297c0.447,0.815,1.007,1.384,1.678,1.71
		c0.672,0.326,1.476,0.488,2.412,0.488c0.977,0,1.893-0.152,2.748-0.458c0.854-0.306,1.547-0.62,2.076-0.946
		c0.162,0.57,0.283,1.059,0.365,1.465c0.082,0.408,0.123,0.814,0.123,1.221c0,0.815-0.633,1.537-1.893,2.168
		c-1.263,0.631-2.911,0.946-4.946,0.946c-1.466,0-2.758-0.183-3.877-0.55c-1.12-0.365-2.066-1.099-2.839-2.197
		c-0.773-1.1-1.364-2.646-1.771-4.641c-0.407-1.994-0.61-4.6-0.61-7.814c0-3.664,0.336-6.584,1.007-8.762
		c0.672-2.177,1.536-3.847,2.595-5.006c1.059-1.16,2.238-1.914,3.541-2.26s2.585-0.52,3.848-0.52c1.424,0,2.625,0.256,3.602,0.764
		C128.019,27.468,128.507,28.129,128.507,28.943z"/>
	<path fill="#70706F" d="M137.544,56.357c0,0.244-0.03,0.438-0.092,0.58c-0.061,0.143-0.254,0.244-0.58,0.305
		s-0.824,0.092-1.495,0.092c-0.672,0-1.64,0-2.9,0V29.065c0-0.569,0.07-1.007,0.214-1.313c0.142-0.306,0.406-0.528,0.794-0.672
		c0.386-0.142,0.905-0.224,1.557-0.244c0.65-0.021,1.485-0.03,2.503-0.03V56.357z M132.537,17.098
		c0.04-1.099,0.285-1.984,0.733-2.655c0.447-0.672,1.16-1.008,2.137-1.008c0.936,0,1.587,0.266,1.954,0.793
		c0.366,0.53,0.528,1.445,0.488,2.748c0,1.262-0.235,2.239-0.702,2.931c-0.469,0.692-1.171,1.038-2.106,1.038
		c-0.814,0-1.435-0.284-1.862-0.855C132.751,19.521,132.537,18.523,132.537,17.098z"/>
	<path fill="#70706F" d="M141.816,42.07c0-5.576,0.886-9.616,2.656-12.119c1.771-2.504,4.264-3.756,7.479-3.756
		c1.587,0,2.981,0.235,4.182,0.703c1.2,0.469,2.188,1.303,2.962,2.503c0.772,1.201,1.353,2.809,1.74,4.823
		c0.386,2.016,0.579,4.57,0.579,7.662c0,5.699-0.854,9.8-2.563,12.303c-1.71,2.504-4.193,3.755-7.449,3.755
		c-1.587,0-2.972-0.183-4.151-0.55c-1.182-0.365-2.178-1.107-2.992-2.229c-0.814-1.119-1.425-2.727-1.831-4.822
		C142.02,48.246,141.816,45.489,141.816,42.07z M147.189,42.192c0,2.524,0.092,4.539,0.275,6.044
		c0.183,1.507,0.458,2.667,0.824,3.48c0.366,0.814,0.824,1.354,1.373,1.618c0.55,0.265,1.17,0.397,1.862,0.397
		c0.65,0,1.252-0.163,1.802-0.489c0.549-0.325,1.027-0.936,1.435-1.831c0.406-0.896,0.722-2.096,0.946-3.603
		c0.223-1.505,0.336-3.46,0.336-5.861c0-2.442-0.092-4.405-0.275-5.892c-0.183-1.486-0.448-2.635-0.793-3.449
		c-0.347-0.814-0.784-1.363-1.313-1.648s-1.159-0.428-1.893-0.428c-0.692,0-1.313,0.162-1.862,0.488
		c-0.549,0.326-1.028,0.916-1.435,1.771c-0.407,0.854-0.723,2.046-0.946,3.571C147.301,37.888,147.189,39.831,147.189,42.192z"/>
	<path fill="#70706F" d="M174.664,26.195c1.587,0,2.879,0.123,3.877,0.367c0.997,0.244,1.78,0.539,2.351,0.885
		c0.569,0.347,0.956,0.724,1.16,1.13c0.203,0.407,0.305,0.753,0.305,1.038c0,0.854-0.366,1.689-1.099,2.503
		c-1.75-1.058-3.745-1.587-5.983-1.587c-1.425,0-2.585,0.254-3.48,0.763c-0.896,0.51-1.343,1.231-1.343,2.167
		c0,0.571,0.143,1.13,0.428,1.68c0.284,0.549,0.956,1.252,2.015,2.106l5.678,4.579c1.303,1.303,2.229,2.514,2.778,3.633
		s0.824,2.453,0.824,3.999c0,2.728-0.896,4.823-2.687,6.288c-1.792,1.466-4.254,2.198-7.388,2.198c-2.198,0-3.989-0.255-5.373-0.763
		c-1.384-0.509-2.075-1.292-2.075-2.352c0-0.365,0.061-0.793,0.183-1.281s0.346-1.018,0.672-1.588
		c1.749,1.018,3.785,1.526,6.105,1.526c1.546,0,2.757-0.325,3.633-0.977c0.875-0.651,1.313-1.587,1.313-2.809
		c0-0.813-0.174-1.607-0.519-2.382c-0.347-0.771-0.987-1.566-1.924-2.381l-5.922-5.067c-1.385-1.139-2.311-2.249-2.778-3.327
		c-0.469-1.078-0.702-2.127-0.702-3.145c0-2.115,0.804-3.846,2.412-5.189C168.731,26.866,171.245,26.195,174.664,26.195z"/>
	<path fill="#70706F" d="M203.724,14.595c1.994,0,3.745,0.305,5.251,0.916c1.506,0.61,2.757,1.648,3.755,3.113
		c0.997,1.465,1.74,3.43,2.229,5.893s0.732,5.546,0.732,9.249c0,4.478-0.265,8.223-0.793,11.234c-0.53,3.013-1.304,5.434-2.32,7.266
		c-1.018,1.831-2.27,3.135-3.755,3.907c-1.486,0.773-3.165,1.16-5.037,1.16h-7.632V15.755c0-0.367,0.101-0.65,0.305-0.855
		c0.204-0.203,0.651-0.305,1.344-0.305H203.724z M210.013,33.278c0-2.809-0.122-5.128-0.366-6.96s-0.621-3.276-1.13-4.335
		c-0.509-1.058-1.15-1.791-1.923-2.198c-0.773-0.406-1.67-0.61-2.687-0.61h-2.809v33.458h2.747c0.773,0,1.536-0.214,2.29-0.641
		c0.753-0.428,1.414-1.322,1.984-2.688c0.569-1.363,1.027-3.316,1.374-5.861C209.839,40.9,210.013,37.511,210.013,33.278z"/>
	<path fill="#70706F" d="M225.337,56.357c0,0.244-0.03,0.438-0.092,0.58c-0.061,0.143-0.254,0.244-0.58,0.305
		s-0.824,0.092-1.495,0.092c-0.672,0-1.64,0-2.9,0V29.065c0-0.569,0.07-1.007,0.214-1.313c0.142-0.306,0.406-0.528,0.794-0.672
		c0.386-0.142,0.905-0.224,1.557-0.244c0.65-0.021,1.485-0.03,2.503-0.03V56.357z M220.331,17.098
		c0.04-1.099,0.285-1.984,0.733-2.655c0.447-0.672,1.16-1.008,2.137-1.008c0.936,0,1.587,0.266,1.954,0.793
		c0.366,0.53,0.528,1.445,0.488,2.748c0,1.262-0.235,2.239-0.702,2.931c-0.469,0.692-1.171,1.038-2.106,1.038
		c-0.814,0-1.435-0.284-1.862-0.855C220.545,19.521,220.331,18.523,220.331,17.098z"/>
	<path fill="#70706F" d="M240.662,26.195c0.406,0,0.885,0.041,1.435,0.123s1.088,0.204,1.618,0.366h7.326
		c0.122,0.204,0.233,0.509,0.336,0.915c0.102,0.408,0.152,0.896,0.152,1.466c0,1.263-0.57,1.894-1.709,1.894
		c-0.57,0-1.304-0.102-2.198-0.307c0.691,0.693,1.252,1.588,1.679,2.688c0.428,1.099,0.642,2.402,0.642,3.907
		c0,3.257-0.764,5.852-2.29,7.784c-1.526,1.934-4.06,2.9-7.602,2.9c-1.14,0-2.056-0.081-2.747-0.244
		c-0.407,0.407-0.773,0.854-1.099,1.343c-0.326,0.489-0.488,0.937-0.488,1.343c0,0.286,0.183,0.52,0.549,0.703
		c0.366,0.183,0.875,0.336,1.526,0.457c0.65,0.123,1.414,0.244,2.29,0.367c0.875,0.121,1.821,0.244,2.839,0.366
		c1.221,0.204,2.32,0.458,3.297,0.763c0.977,0.306,1.821,0.732,2.534,1.282c0.711,0.55,1.261,1.231,1.648,2.046
		c0.386,0.814,0.58,1.832,0.58,3.053c0,1.302-0.225,2.554-0.672,3.754c-0.448,1.201-1.15,2.26-2.106,3.176
		c-0.957,0.916-2.178,1.648-3.663,2.197c-1.486,0.55-3.247,0.824-5.281,0.824c-2.036,0-3.694-0.193-4.977-0.58
		s-2.279-0.906-2.991-1.557c-0.713-0.651-1.19-1.363-1.435-2.137c-0.245-0.773-0.367-1.567-0.367-2.381
		c0-1.506,0.448-2.881,1.344-4.121c0.895-1.242,1.994-2.311,3.297-3.205c-1.181-0.326-2.106-0.764-2.778-1.313
		c-0.671-0.55-0.987-1.23-0.946-2.046c0.04-0.813,0.406-1.698,1.1-2.655c0.691-0.956,1.627-1.902,2.809-2.839
		c-1.426-0.936-2.412-2.207-2.962-3.816c-0.549-1.607-0.824-3.389-0.824-5.342c0-2.035,0.244-3.765,0.733-5.189
		c0.488-1.425,1.18-2.574,2.075-3.449s1.964-1.517,3.206-1.924C237.781,26.4,239.155,26.195,240.662,26.195z M239.013,56.173
		c-0.204,0-0.388-0.01-0.55-0.03c-0.163-0.021-0.347-0.051-0.55-0.092c-0.896,0.692-1.669,1.526-2.32,2.503
		s-0.977,1.975-0.977,2.992c0,0.488,0.07,0.926,0.214,1.313c0.143,0.387,0.396,0.723,0.763,1.008
		c0.367,0.284,0.886,0.508,1.558,0.672c0.671,0.162,1.536,0.244,2.595,0.244c1.099,0,2.035-0.144,2.809-0.428
		c0.772-0.285,1.414-0.662,1.923-1.13s0.886-0.977,1.13-1.526c0.244-0.549,0.366-1.09,0.366-1.617c0-0.693-0.112-1.263-0.336-1.71
		c-0.225-0.448-0.601-0.824-1.13-1.13c-0.529-0.305-1.241-0.539-2.137-0.702C241.475,56.377,240.356,56.255,239.013,56.173z
		 M240.478,29.859c-1.303,0-2.411,0.561-3.327,1.679c-0.916,1.12-1.374,3.022-1.374,5.709c0,1.099,0.062,2.075,0.184,2.931
		c0.122,0.854,0.345,1.578,0.671,2.168c0.325,0.59,0.783,1.037,1.374,1.342c0.59,0.307,1.353,0.459,2.29,0.459
		c1.627,0,2.808-0.672,3.541-2.016c0.732-1.343,1.099-3.357,1.099-6.044c0-2.238-0.377-3.836-1.13-4.793
		C243.052,30.337,241.944,29.859,240.478,29.859z"/>
	<path fill="#70706F" d="M260.015,56.357c0,0.244-0.03,0.438-0.092,0.58c-0.061,0.143-0.254,0.244-0.58,0.305
		s-0.824,0.092-1.495,0.092c-0.672,0-1.64,0-2.9,0V29.065c0-0.569,0.07-1.007,0.214-1.313c0.142-0.306,0.406-0.528,0.794-0.672
		c0.386-0.142,0.905-0.224,1.557-0.244c0.65-0.021,1.485-0.03,2.503-0.03V56.357z M255.008,17.098
		c0.04-1.099,0.285-1.984,0.733-2.655c0.447-0.672,1.16-1.008,2.137-1.008c0.936,0,1.587,0.266,1.954,0.793
		c0.366,0.53,0.528,1.445,0.488,2.748c0,1.262-0.235,2.239-0.702,2.931c-0.469,0.692-1.171,1.038-2.106,1.038
		c-0.814,0-1.435-0.284-1.862-0.855C255.222,19.521,255.008,18.523,255.008,17.098z"/>
	<path fill="#70706F" d="M268.074,31.079h-4.152c0-0.936,0.01-1.688,0.031-2.259c0.02-0.569,0.061-1.007,0.122-1.313
		c0.061-0.306,0.172-0.498,0.336-0.58c0.162-0.081,0.366-0.122,0.61-0.122h3.053v-9.28c0-0.407,0.07-0.733,0.214-0.978
		c0.142-0.244,0.396-0.416,0.763-0.519c0.366-0.101,0.875-0.162,1.526-0.183c0.65-0.021,1.485-0.031,2.503-0.031v10.99h6.228
		c0,0.977-0.01,1.74-0.03,2.289c-0.021,0.55-0.061,0.977-0.122,1.283c-0.061,0.305-0.152,0.498-0.274,0.58s-0.306,0.121-0.55,0.121
		h-5.251v17.768c0,0.651,0.01,1.272,0.031,1.861c0.02,0.591,0.101,1.1,0.244,1.527c0.142,0.427,0.355,0.773,0.641,1.037
		c0.284,0.266,0.712,0.397,1.282,0.397c0.691,0,1.303-0.071,1.832-0.214c0.528-0.143,1.099-0.376,1.709-0.702
		c0.081,0.326,0.162,0.692,0.244,1.099c0.081,0.408,0.122,0.855,0.122,1.344c0,0.57-0.163,1.028-0.488,1.373
		c-0.326,0.347-0.743,0.621-1.251,0.824c-0.51,0.203-1.069,0.346-1.68,0.428c-0.61,0.081-1.221,0.122-1.831,0.122
		c-1.304,0-2.342-0.214-3.114-0.642c-0.773-0.427-1.364-1.037-1.771-1.831c-0.407-0.794-0.672-1.749-0.794-2.87
		c-0.122-1.118-0.183-2.37-0.183-3.754V31.079z"/>
	<path fill="#70706F" d="M282.421,29.554c0-0.326,0.05-0.642,0.152-0.947c0.101-0.305,0.274-0.559,0.519-0.764
		c0.529-0.324,1.628-0.681,3.297-1.068c1.669-0.386,3.664-0.58,5.983-0.58c2.646,0,4.569,0.551,5.771,1.648
		c1.199,1.1,1.801,3.033,1.801,5.801v3.236c0,1.75,0,3.51,0,5.281c0,1.771-0.021,3.48-0.062,5.129
		c-0.041,1.648-0.082,3.205-0.122,4.67c-0.041,1.465-0.102,2.769-0.183,3.908c-0.814,0.488-1.934,0.957-3.358,1.404
		s-3.135,0.671-5.129,0.671c-1.099,0-2.178-0.082-3.235-0.244c-1.059-0.163-1.995-0.569-2.809-1.222
		c-0.814-0.65-1.466-1.596-1.954-2.838s-0.732-2.9-0.732-4.977c0-2.115,0.233-3.825,0.702-5.129c0.468-1.302,1.078-2.32,1.832-3.053
		c0.752-0.732,1.617-1.221,2.595-1.465c0.977-0.244,1.974-0.366,2.991-0.366c0.692,0,1.455,0.052,2.29,0.152
		c0.834,0.103,1.557,0.315,2.167,0.642V34.62c0-1.424-0.326-2.381-0.977-2.869c-0.651-0.488-1.588-0.732-2.809-0.732
		c-1.547,0-3.053,0.133-4.518,0.396c-1.466,0.266-2.646,0.58-3.542,0.946c-0.285-0.488-0.468-0.986-0.549-1.495
		C282.461,30.358,282.421,29.919,282.421,29.554z M294.937,42.924c-0.407-0.203-0.876-0.345-1.404-0.427
		c-0.529-0.082-1.018-0.123-1.465-0.123c-0.61,0-1.19,0.072-1.74,0.215s-1.028,0.438-1.435,0.885
		c-0.407,0.448-0.732,1.068-0.978,1.862c-0.244,0.794-0.366,1.862-0.366,3.205c0,1.099,0.092,1.995,0.275,2.687
		c0.183,0.692,0.447,1.231,0.793,1.618c0.346,0.388,0.764,0.641,1.252,0.763c0.488,0.123,1.038,0.184,1.648,0.184
		c0.691,0,1.333-0.102,1.924-0.306c0.589-0.203,1.027-0.447,1.313-0.732c0.04-0.488,0.07-1.13,0.091-1.923
		c0.021-0.794,0.041-1.639,0.062-2.534s0.03-1.811,0.03-2.747C294.937,44.615,294.937,43.74,294.937,42.924z"/>
	<path fill="#70706F" d="M309.956,56.357c0,0.244-0.03,0.438-0.092,0.58c-0.061,0.143-0.244,0.244-0.549,0.305
		c-0.306,0.061-0.794,0.092-1.466,0.092s-1.618,0-2.839,0V14.717c0-0.569,0.07-1.007,0.214-1.313
		c0.142-0.305,0.396-0.527,0.763-0.671c0.366-0.142,0.875-0.224,1.526-0.244c0.65-0.021,1.466-0.03,2.442-0.03V56.357z"/>
	<path fill="#70706F" d="M325.463,26.195c5.169,0,7.754,3.277,7.754,9.83c0,1.344-0.051,2.729-0.152,4.152
		c-0.103,1.426-0.274,2.686-0.519,3.785c-1.06,0.204-2.179,0.366-3.358,0.488c-1.181,0.123-2.351,0.225-3.511,0.306
		c-1.16,0.082-2.249,0.132-3.267,0.152s-1.893,0.03-2.625,0.03c0.04,1.629,0.192,2.973,0.458,4.029
		c0.264,1.06,0.62,1.894,1.068,2.504c0.447,0.611,1.017,1.038,1.709,1.282s1.506,0.366,2.442,0.366c1.222,0,2.422-0.172,3.603-0.52
		c1.18-0.345,2.299-0.803,3.358-1.373c0.162,0.448,0.274,0.998,0.335,1.648c0.062,0.651,0.092,1.221,0.092,1.709
		c0,0.489-0.224,0.938-0.672,1.344c-0.448,0.407-1.059,0.764-1.831,1.068c-0.773,0.305-1.67,0.539-2.687,0.702
		c-1.018,0.162-2.097,0.244-3.236,0.244c-1.425,0-2.737-0.183-3.938-0.55c-1.201-0.365-2.229-1.068-3.083-2.105
		c-0.855-1.039-1.526-2.493-2.016-4.365c-0.488-1.873-0.732-4.295-0.732-7.266c0-3.826,0.314-6.889,0.946-9.189
		c0.631-2.299,1.444-4.061,2.442-5.281c0.997-1.221,2.146-2.024,3.449-2.412C322.797,26.389,324.121,26.195,325.463,26.195z
		 M324.915,30.531c-0.611,0-1.201,0.152-1.771,0.457c-0.57,0.306-1.089,0.855-1.557,1.648c-0.468,0.795-0.854,1.854-1.16,3.176
		c-0.305,1.322-0.499,3.021-0.58,5.098c0.57,0,1.222,0,1.954,0s1.475-0.03,2.229-0.092c0.753-0.061,1.485-0.131,2.198-0.213
		c0.711-0.082,1.332-0.203,1.862-0.367c0.122-0.569,0.203-1.18,0.244-1.832c0.04-0.65,0.061-1.26,0.061-1.831
		c-0.041-2.198-0.305-3.755-0.794-4.671C327.112,30.988,326.216,30.531,324.915,30.531z"/>
	<path fill="#70706F" d="M346.649,26.195c1.587,0,2.879,0.123,3.877,0.367c0.997,0.244,1.78,0.539,2.351,0.885
		c0.569,0.347,0.956,0.724,1.16,1.13c0.203,0.407,0.305,0.753,0.305,1.038c0,0.854-0.366,1.689-1.099,2.503
		c-1.75-1.058-3.745-1.587-5.983-1.587c-1.425,0-2.585,0.254-3.48,0.763c-0.896,0.51-1.343,1.231-1.343,2.167
		c0,0.571,0.143,1.13,0.428,1.68c0.284,0.549,0.956,1.252,2.015,2.106l5.678,4.579c1.303,1.303,2.229,2.514,2.778,3.633
		s0.824,2.453,0.824,3.999c0,2.728-0.896,4.823-2.687,6.288c-1.792,1.466-4.254,2.198-7.388,2.198c-2.198,0-3.989-0.255-5.373-0.763
		c-1.384-0.509-2.075-1.292-2.075-2.352c0-0.365,0.061-0.793,0.183-1.281s0.346-1.018,0.672-1.588
		c1.749,1.018,3.785,1.526,6.105,1.526c1.546,0,2.757-0.325,3.633-0.977c0.875-0.651,1.313-1.587,1.313-2.809
		c0-0.813-0.174-1.607-0.519-2.382c-0.347-0.771-0.987-1.566-1.924-2.381l-5.922-5.067c-1.385-1.139-2.311-2.249-2.778-3.327
		c-0.469-1.078-0.702-2.127-0.702-3.145c0-2.115,0.804-3.846,2.412-5.189C340.716,26.866,343.23,26.195,346.649,26.195z"/>
</g>
<g>
	<path fill="#70706F" d="M28.434,91.332h0.068c1.166-2.024,3.705-3.19,6.037-3.19c4.837,0,7.821,3.773,7.821,8.404
		c0,4.63-2.984,8.129-7.753,8.129c-2.435,0-4.802-1.063-6.105-3.087h-0.068v12.006H26.89V88.485h1.544V91.332z M28.332,96.751
		c0,3.705,2.504,6.483,6.312,6.483c3.704,0,6.174-3.121,6.174-6.654c0-3.637-2.367-6.998-6.243-6.998
		C30.527,89.582,28.332,92.944,28.332,96.751z"/>
	<path fill="#70706F" d="M60.03,104.332h-1.544v-2.847h-0.068c-1.167,2.023-3.705,3.189-6.037,3.189
		c-4.803,0-7.821-3.738-7.821-8.369s2.984-8.164,7.752-8.164c2.436,0,4.769,1.098,6.106,3.087h0.068v-2.744h1.544V104.332z
		 M46.103,96.306c0,3.636,2.401,6.929,6.243,6.929c4.047,0,6.242-3.293,6.242-7.101c0-3.67-2.504-6.552-6.346-6.552
		C48.607,89.582,46.103,92.875,46.103,96.306z"/>
	<path fill="#70706F" d="M66.859,90.543h0.068c0.617-1.441,1.75-2.401,3.431-2.401c0.617,0,1.132,0.138,1.681,0.377l-0.823,1.372
		c-0.378-0.205-0.687-0.309-1.098-0.309c-3.465,0-3.259,4.322-3.259,6.654v8.096h-1.544V88.485h1.544V90.543z"/>
	<path fill="#70706F" d="M88.78,104.332h-1.544v-2.847h-0.068c-1.167,2.023-3.705,3.189-6.037,3.189
		c-4.803,0-7.821-3.738-7.821-8.369s2.984-8.164,7.752-8.164c2.436,0,4.769,1.098,6.106,3.087h0.068v-2.744h1.544V104.332z
		 M74.853,96.306c0,3.636,2.401,6.929,6.243,6.929c4.047,0,6.242-3.293,6.242-7.101c0-3.67-2.504-6.552-6.346-6.552
		C77.357,89.582,74.853,92.875,74.853,96.306z"/>
	<path fill="#70706F" d="M107.479,83.202c0,0.789-0.617,1.406-1.406,1.406s-1.406-0.617-1.406-1.406
		c0-0.755,0.617-1.406,1.406-1.406S107.479,82.448,107.479,83.202z M106.828,104.332h-1.544V88.485h1.544V104.332z"/>
	<path fill="#70706F" d="M114.272,90.475h0.068c0.721-1.476,2.299-2.333,3.979-2.333c2.023,0,3.636,1.029,4.459,2.882
		c0.857-1.887,2.606-2.882,4.631-2.882c4.082,0,4.904,2.778,4.904,6.243v9.947h-1.543V94.179c0-2.436-0.377-4.597-3.396-4.597
		c-3.292,0-4.081,2.882-4.081,5.626v9.124h-1.544v-9.776c0-2.47-0.445-4.974-3.533-4.974c-3.327,0-3.944,3.465-3.944,6.037v8.713
		h-1.544V88.485h1.544V90.475z"/>
	<path fill="#70706F" d="M139.144,91.332h0.068c1.167-2.024,3.705-3.19,6.037-3.19c4.837,0,7.821,3.773,7.821,8.404
		c0,4.63-2.984,8.129-7.752,8.129c-2.436,0-4.803-1.063-6.106-3.087h-0.068v12.006h-1.543V88.485h1.543V91.332z M139.042,96.751
		c0,3.705,2.504,6.483,6.312,6.483c3.704,0,6.174-3.121,6.174-6.654c0-3.637-2.366-6.998-6.242-6.998
		C141.237,89.582,139.042,92.944,139.042,96.751z"/>
	<path fill="#70706F" d="M167.962,88.485v9.502c0,1.612,0.034,3.225-0.96,4.563c-1.098,1.44-2.95,2.126-4.734,2.126
		c-1.783,0-3.636-0.686-4.733-2.126c-0.994-1.338-0.96-2.95-0.96-4.563v-9.502h1.543v8.953c0,3.053,0.344,5.797,4.15,5.797
		c3.808,0,4.151-2.744,4.151-5.797v-8.953H167.962z"/>
	<path fill="#70706F" d="M174.549,104.332h-1.543V76.033h1.543V104.332z"/>
	<path fill="#70706F" d="M186.488,91.366c-0.515-1.098-1.544-1.784-2.778-1.784c-1.338,0-2.71,1.098-2.71,2.47
		c0,3.808,7.718,1.955,7.718,7.684c0,2.916-2.264,4.939-5.111,4.939c-2.641,0-4.802-1.612-5.454-4.185l1.51-0.48
		c0.583,1.887,1.853,3.225,3.944,3.225c1.99,0,3.567-1.578,3.567-3.567c0-1.955-1.509-2.572-3.087-3.121
		c-2.161-0.789-4.631-1.716-4.631-4.391c0-2.401,2.024-4.014,4.322-4.014c1.612,0,3.361,1.063,4.048,2.538L186.488,91.366z"/>
	<path fill="#70706F" d="M206.625,104.332h-1.543v-2.847h-0.068c-1.167,2.023-3.705,3.189-6.037,3.189
		c-4.803,0-7.821-3.738-7.821-8.369s2.984-8.164,7.752-8.164c2.436,0,4.769,1.098,6.106,3.087h0.068v-2.744h1.543V104.332z
		 M192.699,96.306c0,3.636,2.4,6.929,6.242,6.929c4.048,0,6.243-3.293,6.243-7.101c0-3.67-2.504-6.552-6.346-6.552
		C195.203,89.582,192.699,92.875,192.699,96.306z"/>
	<path fill="#70706F" d="M213.455,90.543h0.068c0.618-1.441,1.75-2.401,3.431-2.401c0.617,0,1.132,0.138,1.681,0.377l-0.823,1.372
		c-0.377-0.205-0.686-0.309-1.098-0.309c-3.464,0-3.259,4.322-3.259,6.654v8.096h-1.543V88.485h1.543V90.543z"/>
	<path fill="#70706F" d="M233.799,104.332h-1.544V89.926h-1.749v-1.441h1.749v-5.659h1.544v5.659h2.778v1.441h-2.778V104.332z"/>
	<path fill="#70706F" d="M250.402,88.485v9.502c0,1.612,0.034,3.225-0.96,4.563c-1.098,1.44-2.95,2.126-4.733,2.126
		c-1.784,0-3.637-0.686-4.734-2.126c-0.994-1.338-0.96-2.95-0.96-4.563v-9.502h1.543v8.953c0,3.053,0.344,5.797,4.151,5.797
		c3.807,0,4.15-2.744,4.15-5.797v-8.953H250.402z"/>
	<path fill="#70706F" d="M262.102,91.366c-0.515-1.098-1.544-1.784-2.778-1.784c-1.338,0-2.71,1.098-2.71,2.47
		c0,3.808,7.718,1.955,7.718,7.684c0,2.916-2.264,4.939-5.111,4.939c-2.641,0-4.802-1.612-5.453-4.185l1.509-0.48
		c0.583,1.887,1.853,3.225,3.944,3.225c1.99,0,3.567-1.578,3.567-3.567c0-1.955-1.509-2.572-3.087-3.121
		c-2.161-0.789-4.631-1.716-4.631-4.391c0-2.401,2.024-4.014,4.322-4.014c1.612,0,3.361,1.063,4.048,2.538L262.102,91.366z"/>
	<path fill="#70706F" d="M281.726,83.202c0,0.789-0.617,1.406-1.406,1.406s-1.406-0.617-1.406-1.406
		c0-0.755,0.617-1.406,1.406-1.406S281.726,82.448,281.726,83.202z M281.074,104.332h-1.543V88.485h1.543V104.332z"/>
	<path fill="#70706F" d="M299.359,101.486h-0.068c-1.167,2.023-3.705,3.189-6.037,3.189c-4.803,0-7.821-3.738-7.821-8.369
		s2.984-8.164,7.752-8.164c2.436,0,4.769,1.098,6.106,3.087h0.068V76.033h1.543v28.299h-1.543V101.486z M299.461,96.134
		c0-3.67-2.504-6.552-6.346-6.552c-3.636,0-6.14,3.293-6.14,6.724c0,3.636,2.4,6.929,6.242,6.929
		C297.266,103.235,299.461,99.942,299.461,96.134z"/>
	<path fill="#70706F" d="M306.188,96.546c-0.104,4.013,2.675,6.688,6.346,6.688c2.47,0,4.459-1.475,5.591-3.602l1.304,0.755
		c-1.44,2.744-3.979,4.287-7.101,4.287c-4.699,0-7.684-3.808-7.684-8.301c0-4.425,3.053-8.232,7.684-8.232
		c4.803,0,7.649,3.842,7.615,8.404H306.188z M318.399,95.105c-0.377-2.915-2.778-5.522-6.037-5.522
		c-3.225,0-5.899,2.539-6.174,5.522H318.399z"/>
	<path fill="#70706F" d="M337.611,104.332h-1.543v-2.847H336c-1.167,2.023-3.705,3.189-6.037,3.189
		c-4.803,0-7.821-3.738-7.821-8.369s2.984-8.164,7.752-8.164c2.436,0,4.769,1.098,6.106,3.087h0.068v-2.744h1.543V104.332z
		 M323.685,96.306c0,3.636,2.4,6.929,6.242,6.929c4.048,0,6.243-3.293,6.243-7.101c0-3.67-2.504-6.552-6.346-6.552
		C326.189,89.582,323.685,92.875,323.685,96.306z"/>
	<path fill="#70706F" d="M349.551,91.366c-0.515-1.098-1.544-1.784-2.778-1.784c-1.338,0-2.71,1.098-2.71,2.47
		c0,3.808,7.718,1.955,7.718,7.684c0,2.916-2.264,4.939-5.111,4.939c-2.641,0-4.802-1.612-5.453-4.185l1.509-0.48
		c0.583,1.887,1.853,3.225,3.944,3.225c1.99,0,3.567-1.578,3.567-3.567c0-1.955-1.509-2.572-3.087-3.121
		c-2.161-0.789-4.631-1.716-4.631-4.391c0-2.401,2.024-4.014,4.322-4.014c1.612,0,3.361,1.063,4.048,2.538L349.551,91.366z"/>
</g>
</svg>
