<?xml version="1.0" encoding="utf-8"?>
<!-- Generator: Adobe Illustrator 17.0.0, SVG Export Plug-In . SVG Version: 6.00 Build 0)  -->
<!DOCTYPE svg PUBLIC "-//W3C//DTD SVG 1.1//EN" "http://www.w3.org/Graphics/SVG/1.1/DTD/svg11.dtd">
<svg version="1.1" id="Capa_1" xmlns="http://www.w3.org/2000/svg" xmlns:xlink="http://www.w3.org/1999/xlink" x="0px" y="0px"
	 width="201.625px" height="201.625px" viewBox="0 0 201.625 201.625" enable-background="new 0 0 201.625 201.625"
	 xml:space="preserve">
<circle fill="#D8ECE8" cx="100.812" cy="100.812" r="100.812"/>
<g>
	<rect x="54.417" y="47.017" fill="#FFFFFF" width="92.971" height="38.385"/>
	<rect x="69.889" y="71.069" fill="#F2936B" width="50.705" height="6.73"/>
	<path fill="#545353" d="M109.042,29.413h3.622c0,0,0.795,5.234-2.664,5.889H88.782c0,0-1.496-0.023-1.589,1.682
		c-0.063,1.144,0.841,1.682,0.841,1.682h0.374h11.719c0,0,2.764-0.002,2.815,2.453c0.023,1.122,0.047,3.248,0.047,3.248h44.305
		c0,0,1.888,0.263,2.243,1.344c0.176,0.538,0.093,2.115,0.093,2.115l0.083,37.575h-3.261V47.888H56.161v37.513h-3.614V46.767
		c0,0,0.218-0.935,1.009-1.57c0.766-0.615,1.788-0.853,1.788-0.853l43.936,0.002c0,0,0.088-1.965-0.076-2.035H87.521
		c0,0-4.045-1.078-4.066-4.487c-0.023-3.855,1.976-5.035,3.108-5.492h22.339C108.901,32.334,109.135,32.404,109.042,29.413z"/>
	<rect x="60.51" y="71.069" fill="#F2936B" width="6.73" height="6.73"/>
	<g>
		<path fill="#545353" d="M116.449,128.865h18.834h3.599v-10.142c0,0-0.608-1.169-1.495-1.496c-0.544-0.2-0.888-0.328-0.888-0.328
			l0.187-3.599c0,0,4.58-9.488,5.047-11.45V86.708c0,0-0.935-2.524-2.477-3.225c-2.017-0.917-3.879-0.187-3.879-0.187
			s-0.795-3.178-4.627-3.319c-2.382-0.087-3.271,0.935-3.271,0.935s-0.374-1.169-2.384-1.262c-1.125-0.052-1.916,0.701-1.916,0.701
			v-6.216c0,0-0.841-4.819-5.047-4.814c-2.764,0.004-4.673,2.617-4.814,4.393v14.722c0,0-2.762-0.265-3.926,0.608
			c-1.496,1.122-1.869,2.384-1.869,2.384v12.151c0,0,2.197,3.319,4.16,5.842c1.963,2.524,3.319,4.3,3.319,4.3l0.187,3.178
			c0,0-1.776,0.748-1.916,2.056l-0.047,9.908h3.227V128.865z"/>
		<rect x="116.636" y="119.518" fill="#F2936B" width="18.834" height="9.347"/>
		<path fill="#FFFFFF" d="M118.233,115.934h15.641v-3.49c0,0,1.309-4.113,2.305-6.044c0.997-1.931,1.931-3.427,2.181-5.546V88.142
			c0,0,0.265-1.34-1.371-1.371c-1.916-0.037-1.379,1.854-1.558,3.427h-3.178V84.28c0,0-0.171-1.005-1.433-1.122
			c-0.963-0.089-1.433,1.184-1.433,1.184v5.733h-3.49V84.28c0,0-0.086-1.302-1.496-1.152c-0.942,0.1-1.122,1.128-1.122,1.128v5.631
			h-3.49V74.434c0,0,0.098-1.309-1.558-1.309c-1.527,0-1.558,1.371-1.558,1.371v22.807h-2.929v-4.238c0,0,0.039-1.519-1.371-1.62
			c-1.492-0.107-1.496,1.496-1.496,1.496v7.602c0,0,1.558,2.866,2.804,5.172c1.247,2.305,4.541,6.208,4.541,6.208L118.233,115.934z"
			/>
	</g>
	<g>
		<path fill="#545353" d="M85.786,128.865H66.951h-3.599v-10.142c0,0,0.608-1.169,1.496-1.496c0.544-0.2,0.888-0.328,0.888-0.328
			l-0.187-3.599c0,0-4.58-9.488-5.047-11.45V79.511c0,0,1.239-2.579,2.856-3.084c2.991-0.935,3.739-0.093,3.739-0.093
			s0.299-3.15,4.113-3.552c1.776-0.187,2.617,0.342,2.617,0.342s0.689-3.326,2.991-3.614c4.487-0.561,4.829,3.864,4.829,3.864
			s0.726-0.695,3.084-0.873c0.748-0.056,4.206,0.612,4.185,4.611v11.559c0,0,2.762-0.499,3.926,0.374
			c1.496,1.122,1.869,2.384,1.869,2.384v12.151c0,0-2.197,3.319-4.16,5.842c-1.963,2.524-3.319,4.3-3.319,4.3l-0.187,3.178
			c0,0,1.776,0.748,1.916,2.056l0.047,9.908L85.786,128.865L85.786,128.865z"/>
		<rect x="66.764" y="119.518" fill="#F2936B" width="18.834" height="9.347"/>
		<path fill="#FFFFFF" d="M84.002,115.934H68.362v-3.49c0,0-1.309-4.113-2.305-6.044c-0.997-1.931-1.931-3.427-2.181-5.546V80.681
			c0,0,0.332-1.131,1.371-1.262c0.995-0.125,1.68,0.203,1.898,1.402v9.378h2.838v-12.93c0,0,0.171-1.098,1.433-1.215
			c0.963-0.089,1.433,0.841,1.433,0.841v13.179h3.49V74.464c0,0,0.239-1.49,1.649-1.34c0.942,0.1,0.968,1.527,0.968,1.527v15.236
			h3.49V77.55c0,0-0.098-1.745,1.558-1.745c1.527,0,1.558,1.62,1.558,1.62v19.878h2.929v-4.238c0,0-0.039-1.519,1.371-1.62
			c1.492-0.107,1.496,1.496,1.496,1.496v7.602c0,0-1.558,2.866-2.804,5.172c-1.247,2.305-4.541,6.208-4.541,6.208L84.002,115.934z"
			/>
	</g>
	<rect x="64.885" y="52.375" fill="#F2936B" width="6.73" height="6.73"/>
	<rect x="83.589" y="52.375" fill="#F2936B" width="6.73" height="6.73"/>
	<rect x="93.186" y="52.375" fill="#F2936B" width="6.73" height="6.73"/>
	<rect x="102.533" y="52.375" fill="#F2936B" width="6.73" height="6.73"/>
	<rect x="74.25" y="52.375" fill="#F2936B" width="6.73" height="6.73"/>
	<rect x="112.137" y="52.375" fill="#F2936B" width="6.73" height="6.73"/>
	<rect x="121.263" y="52.375" fill="#F2936B" width="6.73" height="6.73"/>
	<rect x="130.36" y="52.375" fill="#F2936B" width="6.73" height="6.73"/>
	<rect x="135.011" y="61.598" fill="#F2936B" width="6.73" height="6.73"/>
	<rect x="126.287" y="61.598" fill="#F2936B" width="6.73" height="6.73"/>
	<rect x="116.498" y="61.598" fill="#F2936B" width="6.73" height="6.73"/>
	<rect x="107.774" y="61.598" fill="#F2936B" width="6.73" height="6.73"/>
	<rect x="97.547" y="61.598" fill="#F2936B" width="6.73" height="6.73"/>
	<rect x="88.823" y="61.598" fill="#F2936B" width="6.73" height="6.73"/>
	<rect x="78.612" y="61.598" fill="#F2936B" width="6.73" height="6.73"/>
	<rect x="69.889" y="61.598" fill="#F2936B" width="6.73" height="6.73"/>
	<rect x="60.51" y="61.598" fill="#F2936B" width="6.73" height="6.73"/>
	<rect x="135.011" y="71.069" fill="#F2936B" width="6.73" height="6.73"/>
	<rect x="126.287" y="71.069" fill="#F2936B" width="6.73" height="6.73"/>
	<rect x="92.188" y="80.042" fill="#F2936B" width="4.362" height="3.864"/>
	<rect x="98.731" y="80.042" fill="#F2936B" width="4.362" height="3.864"/>
	<rect x="105.367" y="80.042" fill="#F2936B" width="4.362" height="3.864"/>
	<g>
		<path fill="#557478" d="M46.126,167.716V148.71h4.298c1.709,0,2.927,0.504,3.654,1.511c0.613,0.858,0.92,2.186,0.92,3.983
			c0,1.534-0.267,2.813-0.802,3.838c-0.683,1.297-1.727,1.946-3.129,1.946h-2.011v7.729L46.126,167.716L46.126,167.716z
			 M49.058,157.267h1.157c0.797,0,1.324-0.325,1.577-0.973c0.149-0.377,0.224-1.056,0.224-2.038c0-0.938-0.092-1.59-0.276-1.958
			c-0.271-0.561-0.815-0.841-1.63-0.841h-1.051V157.267z"/>
		<path fill="#557478" d="M56.8,167.716v-14.025h2.642v1.906c0.666-1.376,1.59-2.064,2.773-2.064h0.263v2.931
			c-0.245-0.123-0.53-0.184-0.855-0.184c-1.454,0-2.182,0.754-2.182,2.26v9.175H56.8z"/>
		<path fill="#557478" d="M63.622,156.899c0-1.131,0.368-2.015,1.104-2.655c0.701-0.605,1.626-0.907,2.773-0.907
			c1.077,0,1.961,0.337,2.649,1.012c0.688,0.675,1.032,1.551,1.032,2.629v7.243c0,1.2-0.335,2.142-1.006,2.826
			c-0.671,0.683-1.602,1.025-2.793,1.025c-1.166,0-2.085-0.363-2.76-1.091c-0.666-0.701-0.999-1.638-0.999-2.813L63.622,156.899
			L63.622,156.899z M66.316,164.43c0,0.806,0.355,1.209,1.065,1.209c0.763,0,1.143-0.403,1.143-1.209v-7.637
			c0-0.683-0.381-1.025-1.143-1.025c-0.71,0-1.065,0.342-1.065,1.025V164.43z"/>
		<path fill="#557478" d="M74.688,163.602c-1.139-0.71-1.709-1.814-1.709-3.313v-2.8c0-1.244,0.28-2.23,0.84-2.957
			c0.621-0.797,1.535-1.196,2.742-1.196c1.164,0,2.173,0.521,3.031,1.564c0.315,0.578,0.473,0.982,0.473,1.209
			c0,0.061,0,0.109,0,0.144c0,0.316,0,0.627,0,0.933v3.129c0,2.533-1.122,3.79-3.365,3.772c-0.061,0-0.271-0.017-0.631-0.052
			c-0.026,0-0.048-0.005-0.066-0.013c-0.412,0.307-0.618,0.605-0.618,0.894c0,0.403,0.513,0.636,1.538,0.697
			c0.639,0.035,1.131,0.079,1.472,0.132c2.208,0.325,3.313,1.376,3.313,3.155c0,2.208-1.687,3.313-5.061,3.313
			c-2.927,0-4.39-0.745-4.39-2.234c0-0.464,0.197-0.894,0.591-1.288c0.333-0.333,0.916-0.666,1.748-0.999
			c-1.078-0.271-1.617-0.811-1.617-1.617C72.98,165.259,73.55,164.435,74.688,163.602z M76.135,168.045
			c-0.666,0.307-0.999,0.674-0.999,1.104c0,0.368,0.236,0.657,0.71,0.867c0.368,0.158,0.763,0.236,1.183,0.236
			c0.517,0,0.986-0.07,1.407-0.21c0.605-0.21,0.907-0.521,0.907-0.933C79.342,168.418,78.272,168.063,76.135,168.045z
			 M77.673,160.447v-3.259c0-0.947-0.386-1.419-1.157-1.419c-0.754,0-1.131,0.473-1.131,1.419v3.259
			c0,0.955,0.377,1.433,1.131,1.433C77.287,161.88,77.673,161.403,77.673,160.447z"/>
		<path fill="#557478" d="M82.733,167.716v-14.025h2.642v1.906c0.666-1.376,1.59-2.064,2.773-2.064h0.263v2.931
			c-0.245-0.123-0.53-0.184-0.855-0.184c-1.454,0-2.182,0.754-2.182,2.26v9.175H82.733z"/>
		<path fill="#557478" d="M97.205,157.661v6.296c0,1.2-0.355,2.182-1.065,2.945c-0.736,0.789-1.7,1.183-2.892,1.183
			c-1.192,0-2.109-0.357-2.754-1.072c-0.645-0.714-0.966-1.913-0.966-3.595c0-2.979,1.661-4.404,4.982-4.272v-1.407
			c0.009-1.306-0.368-1.958-1.131-1.958c-0.429,0-0.881,0.087-1.354,0.263l-1.051-2.05l2.103-0.631
			C95.829,153.31,97.205,154.743,97.205,157.661z M94.51,161.512h-2.326l0.04,2.471c0.017,1.095,0.394,1.643,1.131,1.643
			c0.78,0,1.166-0.547,1.157-1.643L94.51,161.512L94.51,161.512z"/>
		<path fill="#557478" d="M99.399,167.716v-14.025h2.642v1.459c0.903-1.104,1.88-1.656,2.931-1.656c0.999,0,1.621,0.552,1.866,1.656
			c0.876-1.104,1.845-1.656,2.905-1.656c1.288,0,1.932,0.791,1.932,2.373v11.85h-2.642v-10.581c0-0.736-0.233-1.104-0.697-1.104
			c-0.455,0-0.955,0.351-1.499,1.051v10.634h-2.432v-10.581c0-0.736-0.25-1.104-0.749-1.104c-0.491,0-1.03,0.351-1.617,1.051v10.634
			L99.399,167.716L99.399,167.716z"/>
		<path fill="#557478" d="M121.535,157.661v6.296c0,1.2-0.355,2.182-1.065,2.945c-0.736,0.789-1.7,1.183-2.892,1.183
			c-1.192,0-2.109-0.357-2.754-1.072c-0.645-0.714-0.966-1.913-0.966-3.595c0-2.979,1.661-4.404,4.982-4.272v-1.407
			c0.009-1.306-0.368-1.958-1.131-1.958c-0.429,0-0.881,0.087-1.354,0.263l-1.051-2.05l2.103-0.631
			C120.159,153.31,121.535,154.743,121.535,157.661z M118.84,161.512h-2.326l0.04,2.471c0.017,1.095,0.394,1.643,1.131,1.643
			c0.78,0,1.166-0.547,1.157-1.643L118.84,161.512L118.84,161.512z"/>
		<path fill="#557478" d="M123.467,163.76v-6.191c0-1.244,0.342-2.252,1.025-3.023c0.71-0.806,1.678-1.209,2.905-1.209
			c1.218,0,2.156,0.39,2.813,1.169c0.613,0.728,0.92,1.713,0.92,2.957v1.104h-2.681v-1.131c0-1.095-0.377-1.643-1.131-1.643
			c-0.771,0-1.157,0.547-1.157,1.643v6.244c0,1.306,0.377,1.958,1.131,1.958c0.526,0,0.867-0.21,1.025-0.631
			c0.087-0.228,0.132-0.67,0.132-1.327v-1.078h2.681v1.157c0,2.892-1.301,4.338-3.904,4.338c-1.227,0-2.173-0.425-2.839-1.275
			C123.773,166.043,123.467,165.022,123.467,163.76z"/>
		<path fill="#557478" d="M133.312,151.326v-2.616h2.642v2.616H133.312z M133.312,167.716v-14.025h2.642v14.025H133.312z"/>
		<path fill="#557478" d="M138.214,156.899c0-1.131,0.368-2.015,1.104-2.655c0.701-0.605,1.626-0.907,2.773-0.907
			c1.078,0,1.961,0.337,2.649,1.012c0.688,0.675,1.032,1.551,1.032,2.629v7.243c0,1.2-0.335,2.142-1.006,2.826
			c-0.671,0.683-1.602,1.025-2.793,1.025c-1.166,0-2.085-0.363-2.76-1.091c-0.666-0.701-0.999-1.638-0.999-2.813L138.214,156.899
			L138.214,156.899z M142.631,152.377h-2.13l1.275-2.918h3.339L142.631,152.377z M140.909,164.43c0,0.806,0.355,1.209,1.065,1.209
			c0.763,0,1.143-0.403,1.143-1.209v-7.637c0-0.683-0.381-1.025-1.143-1.025c-0.71,0-1.065,0.342-1.065,1.025V164.43z"/>
		<path fill="#557478" d="M148.033,167.716v-14.025h2.642v1.538c0.99-1.157,1.985-1.735,2.984-1.735c1.227,0,1.84,0.825,1.84,2.474
			v11.749h-2.616v-10.581c0-0.736-0.233-1.104-0.697-1.104c-0.447,0-0.95,0.351-1.511,1.051v10.634L148.033,167.716L148.033,167.716
			z"/>
	</g>
</g>
</svg>
