<?xml version="1.0" encoding="utf-8"?>
<!-- Generator: Adobe Illustrator 17.0.0, SVG Export Plug-In . SVG Version: 6.00 Build 0)  -->
<!DOCTYPE svg PUBLIC "-//W3C//DTD SVG 1.1//EN" "http://www.w3.org/Graphics/SVG/1.1/DTD/svg11.dtd">
<svg version="1.1" id="Capa_1" xmlns="http://www.w3.org/2000/svg" xmlns:xlink="http://www.w3.org/1999/xlink" x="0px" y="0px"
	 width="201.625px" height="201.625px" viewBox="0 0 201.625 201.625" enable-background="new 0 0 201.625 201.625"
	 xml:space="preserve">
<circle fill="#FBDBD0" cx="100.813" cy="100.812" r="100.812"/>
<g>
	<g>
		<path fill="#545353" d="M109.902,45.254l-3.757,3.006h24.673l2.254-3.006c0,0,8.141-0.25,8.516,0s1.503,0.125,1.753,2.254
			s0,59.867,0,59.867l9.644,10.771c0,0,1.205,2.333-0.156,4.165c-1.857,2.498-3.851,2.348-3.851,2.348h-97.44
			c0,0-2.458-0.47-3.197-2.16c-0.524-1.2,0.191-2.724,0.191-2.724l7.89-11.022l0.125-59.491c0,0-0.06-1.512,1.221-2.896
			c0.797-0.861,2.286-1.223,2.286-1.223L109.902,45.254z"/>
		<rect x="59.554" y="48.26" fill="#FFFFFF" width="80.782" height="59.115"/>
		<path fill="#F2936B" d="M87.358,76.816l5.135,5.135c0,0,4.697-3.679,6.701-5.51c1.205-1.102,16.364-14.431,18.536-17.221
			c3.632-4.665,8.579-12.086,10.207-14.215c1.628-2.13,7.191-8.761,5.386-10.27c-2.098-1.753-8.392,4.728-12.149,7.734
			c-3.757,3.006-11.734,8.549-16.658,13.934C98.504,62.976,94.121,68.8,90.739,72.807C87.358,76.815,87.358,76.816,87.358,76.816z"
			/>
		<path fill="#F2936B" d="M85.729,79.195l4.723,4.377c0,0,0.24,7.552-3.095,10.418c-2.192,1.883-8.075,3.378-9.581,3.851
			c-1.644,0.517-5.166,3.429-5.574,4.525c0,0-3.256-8.752-1.002-14.387C73.456,82.343,80.737,77.995,85.729,79.195z"/>
		<path fill="#FFFFFF" d="M60.931,110.882h79.78c0,0,3.702,5.253,3.131,5.51c-2.505,1.127-28.305,0.125-28.305,0.125v2.254H86.231
			l-0.25-1.879c0,0-26.427,0-27.679-0.501C57.048,115.892,60.931,110.882,60.931,110.882z"/>
	</g>
	<g>
		<path fill="#557478" d="M72.499,162.67v-19.101h2.998v19.101H72.499z"/>
		<path fill="#557478" d="M78.206,162.67v-14.094h2.655v1.466c0.907-1.11,1.889-1.664,2.946-1.664c1.004,0,1.629,0.555,1.876,1.664
			c0.881-1.11,1.854-1.664,2.919-1.664c1.295,0,1.942,0.795,1.942,2.384v11.908h-2.655v-10.633c0-0.739-0.234-1.11-0.7-1.11
			c-0.458,0-0.96,0.352-1.506,1.057v10.687h-2.444v-10.633c0-0.739-0.251-1.11-0.753-1.11c-0.493,0-1.035,0.352-1.625,1.057v10.687
			L78.206,162.67L78.206,162.67z"/>
		<path fill="#557478" d="M100.45,152.565v6.327c0,1.206-0.357,2.193-1.07,2.959c-0.739,0.793-1.708,1.189-2.906,1.189
			c-1.198,0-2.12-0.359-2.768-1.077c-0.648-0.718-0.971-1.922-0.971-3.613c0-2.994,1.669-4.425,5.006-4.293v-1.414
			c0.009-1.312-0.37-1.968-1.136-1.968c-0.431,0-0.885,0.088-1.361,0.265l-1.057-2.061l2.114-0.634
			C99.068,148.192,100.45,149.632,100.45,152.565z M97.742,156.435h-2.338l0.04,2.484c0.017,1.101,0.396,1.651,1.136,1.651
			c0.784,0,1.171-0.55,1.163-1.651L97.742,156.435L97.742,156.435z"/>
		<path fill="#557478" d="M103.911,158.535c-1.144-0.713-1.717-1.823-1.717-3.329v-2.813c0-1.25,0.281-2.241,0.844-2.972
			c0.624-0.801,1.543-1.202,2.756-1.202c1.169,0,2.184,0.524,3.046,1.572c0.317,0.581,0.475,0.987,0.475,1.215
			c0,0.062,0,0.11,0,0.145c0,0.317,0,0.63,0,0.938v3.144c0,2.545-1.127,3.808-3.382,3.791c-0.062,0-0.273-0.017-0.634-0.053
			c-0.026,0-0.048-0.005-0.066-0.014c-0.414,0.308-0.621,0.608-0.621,0.898c0,0.405,0.516,0.639,1.546,0.7
			c0.642,0.035,1.136,0.079,1.48,0.132c2.219,0.326,3.329,1.383,3.329,3.17c0,2.219-1.695,3.329-5.086,3.329
			c-2.941,0-4.412-0.748-4.412-2.245c0-0.467,0.198-0.898,0.594-1.295c0.334-0.334,0.921-0.67,1.757-1.004
			c-1.083-0.273-1.625-0.815-1.625-1.625C102.194,160.2,102.766,159.372,103.911,158.535z M105.364,163
			c-0.67,0.308-1.004,0.678-1.004,1.11c0,0.37,0.237,0.661,0.713,0.872c0.37,0.159,0.767,0.237,1.189,0.237
			c0.519,0,0.99-0.071,1.413-0.211c0.608-0.211,0.912-0.524,0.912-0.938C108.587,163.375,107.513,163.018,105.364,163z
			 M106.909,155.365v-3.276c0-0.951-0.388-1.426-1.163-1.426c-0.758,0-1.136,0.476-1.136,1.426v3.276c0,0.96,0.379,1.44,1.136,1.44
			C106.522,156.805,106.909,156.325,106.909,155.365z"/>
		<path fill="#557478" d="M111.321,158.668v-6.327c0-1.206,0.363-2.2,1.09-2.979c0.727-0.779,1.688-1.169,2.886-1.169
			c1.198,0,2.12,0.359,2.768,1.077c0.648,0.718,0.971,1.922,0.971,3.613c0,2.994-1.664,4.425-4.993,4.293v1.413
			c-0.009,1.312,0.368,1.968,1.132,1.968c0.429,0,0.881-0.088,1.356-0.264l1.052,2.061l-2.114,0.634
			C112.704,163.04,111.321,161.6,111.321,158.668z M114.042,154.797h2.325l-0.039-2.484c-0.017-1.101-0.394-1.651-1.13-1.651
			c-0.779,0-1.165,0.55-1.156,1.651V154.797z"/>
		<path fill="#557478" d="M121.624,162.67v-14.094h2.655v1.546c0.995-1.163,1.994-1.743,2.998-1.743
			c1.233,0,1.849,0.829,1.849,2.486v11.807h-2.629v-10.633c0-0.739-0.234-1.11-0.7-1.11c-0.449,0-0.955,0.352-1.519,1.057v10.687
			L121.624,162.67L121.624,162.67z"/>
	</g>
</g>
</svg>
