<?xml version="1.0" encoding="utf-8"?>
<!-- Generator: Adobe Illustrator 17.0.0, SVG Export Plug-In . SVG Version: 6.00 Build 0)  -->
<!DOCTYPE svg PUBLIC "-//W3C//DTD SVG 1.1//EN" "http://www.w3.org/Graphics/SVG/1.1/DTD/svg11.dtd">
<svg version="1.1" id="Capa_1" xmlns="http://www.w3.org/2000/svg" xmlns:xlink="http://www.w3.org/1999/xlink" x="0px" y="0px"
	 width="1358px" height="54.421px" viewBox="0 0 1358 54.421" enable-background="new 0 0 1358 54.421" xml:space="preserve">
<polygon fill="#70C1AC" points="0,45.565 580.14,44.85 589.146,0.248 769.843,0 778.259,44.85 1358,44.84 1358,53.998 0.136,54.421 
	"/>
<g>
	<path fill="#FFFFFF" d="M606.553,14.85h4.257v10.772c0,2.374,0.232,5.719,3.852,5.719c3.621,0,3.853-3.345,3.853-5.719V14.85h4.257
		v11.513c0,4.697-2.259,8.246-8.109,8.246c-5.85,0-8.108-3.549-8.108-8.246V14.85z"/>
	<path fill="#FFFFFF" d="M630.042,34.098h-4.258V14.85h4.258V34.098z"/>
	<path fill="#FFFFFF" d="M640.238,34.098h-4.258v-15.98h-4.402V14.85h13.063v3.268h-4.402V34.098z"/>
	<path fill="#FFFFFF" d="M650.462,18.118v4.237h6.775v3.268h-6.775v5.208h7.037v3.268h-11.295V14.85h11.295v3.268H650.462z"/>
	<path fill="#FFFFFF" d="M674.935,19.956c-1.188-1.276-2.982-2.042-4.807-2.042c-4.084,0-6.43,3.318-6.43,6.637
		c0,3.242,2.434,6.484,6.4,6.484c1.824,0,3.648-0.843,4.836-2.042v4.467c-1.592,0.664-3.186,1.149-4.951,1.149
		c-6.141,0-10.688-4.672-10.688-9.981c0-5.463,4.373-10.288,10.773-10.288c1.709,0,3.389,0.408,4.865,1.123V19.956z"/>
	<path fill="#FFFFFF" d="M677.745,14.339h3.07l11.498,13.453h0.059V14.85h4.256v19.631h-3.068l-11.498-13.453h-0.059v13.07h-4.258
		V14.339z"/>
	<path fill="#FFFFFF" d="M709.49,34.609c-6.66,0-10.803-4.493-10.803-10.16c0-5.719,4.287-10.109,10.803-10.109
		s10.803,4.391,10.803,10.109C720.292,30.116,716.152,34.609,709.49,34.609z M709.49,18.042c-4.025,0-6.4,3.14-6.4,6.254
		c0,2.961,1.68,6.611,6.4,6.611s6.4-3.65,6.4-6.611C715.89,21.181,713.515,18.042,709.49,18.042z"/>
	<path fill="#FFFFFF" d="M727.593,32.311c0,1.251-1.158,2.298-2.578,2.298c-1.418,0-2.576-1.047-2.576-2.298
		s1.158-2.246,2.576-2.246C726.435,30.065,727.593,31.06,727.593,32.311z"/>
	<path fill="#FFFFFF" d="M745.347,19.956c-1.188-1.276-2.982-2.042-4.809-2.042c-4.082,0-6.428,3.318-6.428,6.637
		c0,3.242,2.432,6.484,6.4,6.484c1.824,0,3.648-0.843,4.836-2.042v4.467c-1.594,0.664-3.186,1.149-4.953,1.149
		c-6.139,0-10.686-4.672-10.686-9.981c0-5.463,4.373-10.288,10.773-10.288c1.709,0,3.389,0.408,4.865,1.123V19.956z"/>
	<path fill="#FFFFFF" d="M752.415,30.831h6.023v3.268h-10.281V14.85h4.258V30.831z"/>
</g>
</svg>
